<mxfile host="app.diagrams.net" agent="Mozilla/5.0 (Windows NT 10.0; Win64; x64) AppleWebKit/537.36 (KHTML, like Gecko) Chrome/131.0.0.0 Safari/537.36" version="26.0.5" pages="2">
  <diagram name="PÃ¡gina-1" id="xDlylaujTgKgD2GHpeuu">
    <mxGraphModel dx="1886" dy="828" grid="0" gridSize="10" guides="1" tooltips="1" connect="1" arrows="1" fold="1" page="1" pageScale="1" pageWidth="827" pageHeight="1169" background="#FF33FF" math="0" shadow="0">
      <root>
        <mxCell id="0" />
        <mxCell id="1" parent="0" />
        <mxCell id="_ldT-Ky9Ip7e4IslxESC-2" value="Aula 1" style="shape=table;startSize=50;container=1;collapsible=0;childLayout=tableLayout;strokeColor=#EEEEEE;fontColor=#FFFFFF;fillColor=#56517E;movable=1;resizable=1;rotatable=1;deletable=1;editable=1;locked=0;connectable=1;labelBackgroundColor=none;" parent="1" vertex="1">
          <mxGeometry x="240" y="30" width="320" height="50" as="geometry" />
        </mxCell>
        <mxCell id="_ldT-Ky9Ip7e4IslxESC-3" value="" style="shape=tableRow;horizontal=0;startSize=0;swimlaneHead=0;swimlaneBody=0;strokeColor=#EEEEEE;top=0;left=0;bottom=0;right=0;collapsible=0;dropTarget=0;fillColor=none;points=[[0,0.5],[1,0.5]];portConstraint=eastwest;fontColor=#FFFFFF;labelBackgroundColor=none;" parent="_ldT-Ky9Ip7e4IslxESC-2" vertex="1" visible="0">
          <mxGeometry y="50" width="320" height="20" as="geometry" />
        </mxCell>
        <mxCell id="_ldT-Ky9Ip7e4IslxESC-4" value="" style="shape=partialRectangle;html=1;whiteSpace=wrap;connectable=0;strokeColor=#EEEEEE;overflow=hidden;fillColor=none;top=0;left=0;bottom=0;right=0;pointerEvents=1;fontColor=#FFFFFF;labelBackgroundColor=none;" parent="_ldT-Ky9Ip7e4IslxESC-3" vertex="1">
          <mxGeometry width="17" height="20" as="geometry">
            <mxRectangle width="17" height="20" as="alternateBounds" />
          </mxGeometry>
        </mxCell>
        <mxCell id="_ldT-Ky9Ip7e4IslxESC-5" value="" style="shape=partialRectangle;html=1;whiteSpace=wrap;connectable=0;strokeColor=#EEEEEE;overflow=hidden;fillColor=none;top=0;left=0;bottom=0;right=0;pointerEvents=1;fontColor=#FFFFFF;labelBackgroundColor=none;" parent="_ldT-Ky9Ip7e4IslxESC-3" vertex="1">
          <mxGeometry x="17" width="17" height="20" as="geometry">
            <mxRectangle width="17" height="20" as="alternateBounds" />
          </mxGeometry>
        </mxCell>
        <mxCell id="_ldT-Ky9Ip7e4IslxESC-6" value="" style="shape=partialRectangle;html=1;whiteSpace=wrap;connectable=0;strokeColor=#EEEEEE;overflow=hidden;fillColor=none;top=0;left=0;bottom=0;right=0;pointerEvents=1;fontColor=#FFFFFF;labelBackgroundColor=none;" parent="_ldT-Ky9Ip7e4IslxESC-3" vertex="1">
          <mxGeometry x="34" width="18" height="20" as="geometry">
            <mxRectangle width="18" height="20" as="alternateBounds" />
          </mxGeometry>
        </mxCell>
        <mxCell id="_ldT-Ky9Ip7e4IslxESC-7" value="" style="shape=partialRectangle;html=1;whiteSpace=wrap;connectable=0;strokeColor=#EEEEEE;overflow=hidden;fillColor=none;top=0;left=0;bottom=0;right=0;pointerEvents=1;fontColor=#FFFFFF;labelBackgroundColor=none;" parent="_ldT-Ky9Ip7e4IslxESC-3" vertex="1">
          <mxGeometry x="52" width="16" height="20" as="geometry">
            <mxRectangle width="16" height="20" as="alternateBounds" />
          </mxGeometry>
        </mxCell>
        <mxCell id="_ldT-Ky9Ip7e4IslxESC-8" value="" style="shape=partialRectangle;html=1;whiteSpace=wrap;connectable=0;strokeColor=#EEEEEE;overflow=hidden;fillColor=none;top=0;left=0;bottom=0;right=0;pointerEvents=1;fontColor=#FFFFFF;labelBackgroundColor=none;" parent="_ldT-Ky9Ip7e4IslxESC-3" vertex="1">
          <mxGeometry x="68" width="18" height="20" as="geometry">
            <mxRectangle width="18" height="20" as="alternateBounds" />
          </mxGeometry>
        </mxCell>
        <mxCell id="_ldT-Ky9Ip7e4IslxESC-9" value="" style="shape=partialRectangle;html=1;whiteSpace=wrap;connectable=0;strokeColor=#EEEEEE;overflow=hidden;fillColor=none;top=0;left=0;bottom=0;right=0;pointerEvents=1;fontColor=#FFFFFF;labelBackgroundColor=none;" parent="_ldT-Ky9Ip7e4IslxESC-3" vertex="1">
          <mxGeometry x="86" width="16" height="20" as="geometry">
            <mxRectangle width="16" height="20" as="alternateBounds" />
          </mxGeometry>
        </mxCell>
        <mxCell id="_ldT-Ky9Ip7e4IslxESC-10" value="" style="shape=partialRectangle;html=1;whiteSpace=wrap;connectable=0;strokeColor=#EEEEEE;overflow=hidden;fillColor=none;top=0;left=0;bottom=0;right=0;pointerEvents=1;fontColor=#FFFFFF;labelBackgroundColor=none;" parent="_ldT-Ky9Ip7e4IslxESC-3" vertex="1">
          <mxGeometry x="102" width="19" height="20" as="geometry">
            <mxRectangle width="19" height="20" as="alternateBounds" />
          </mxGeometry>
        </mxCell>
        <mxCell id="_ldT-Ky9Ip7e4IslxESC-11" value="" style="shape=partialRectangle;html=1;whiteSpace=wrap;connectable=0;strokeColor=#EEEEEE;overflow=hidden;fillColor=none;top=0;left=0;bottom=0;right=0;pointerEvents=1;fontColor=#FFFFFF;labelBackgroundColor=none;" parent="_ldT-Ky9Ip7e4IslxESC-3" vertex="1">
          <mxGeometry x="121" width="17" height="20" as="geometry">
            <mxRectangle width="17" height="20" as="alternateBounds" />
          </mxGeometry>
        </mxCell>
        <mxCell id="_ldT-Ky9Ip7e4IslxESC-12" value="" style="shape=partialRectangle;html=1;whiteSpace=wrap;connectable=0;strokeColor=#EEEEEE;overflow=hidden;fillColor=none;top=0;left=0;bottom=0;right=0;pointerEvents=1;fontColor=#FFFFFF;labelBackgroundColor=none;" parent="_ldT-Ky9Ip7e4IslxESC-3" vertex="1">
          <mxGeometry x="138" width="17" height="20" as="geometry">
            <mxRectangle width="17" height="20" as="alternateBounds" />
          </mxGeometry>
        </mxCell>
        <mxCell id="_ldT-Ky9Ip7e4IslxESC-13" value="" style="shape=partialRectangle;html=1;whiteSpace=wrap;connectable=0;strokeColor=#EEEEEE;overflow=hidden;fillColor=none;top=0;left=0;bottom=0;right=0;pointerEvents=1;fontColor=#FFFFFF;labelBackgroundColor=none;" parent="_ldT-Ky9Ip7e4IslxESC-3" vertex="1">
          <mxGeometry x="155" width="25" height="20" as="geometry">
            <mxRectangle width="25" height="20" as="alternateBounds" />
          </mxGeometry>
        </mxCell>
        <mxCell id="_ldT-Ky9Ip7e4IslxESC-14" value="" style="shape=partialRectangle;html=1;whiteSpace=wrap;connectable=0;strokeColor=#EEEEEE;overflow=hidden;fillColor=none;top=0;left=0;bottom=0;right=0;pointerEvents=1;fontColor=#FFFFFF;labelBackgroundColor=none;" parent="_ldT-Ky9Ip7e4IslxESC-3" vertex="1">
          <mxGeometry x="180" width="9" height="20" as="geometry">
            <mxRectangle width="9" height="20" as="alternateBounds" />
          </mxGeometry>
        </mxCell>
        <mxCell id="_ldT-Ky9Ip7e4IslxESC-15" value="" style="shape=partialRectangle;html=1;whiteSpace=wrap;connectable=0;strokeColor=#EEEEEE;overflow=hidden;fillColor=none;top=0;left=0;bottom=0;right=0;pointerEvents=1;fontColor=#FFFFFF;labelBackgroundColor=none;" parent="_ldT-Ky9Ip7e4IslxESC-3" vertex="1">
          <mxGeometry x="189" width="18" height="20" as="geometry">
            <mxRectangle width="18" height="20" as="alternateBounds" />
          </mxGeometry>
        </mxCell>
        <mxCell id="_ldT-Ky9Ip7e4IslxESC-16" value="" style="shape=partialRectangle;html=1;whiteSpace=wrap;connectable=0;strokeColor=#EEEEEE;overflow=hidden;fillColor=none;top=0;left=0;bottom=0;right=0;pointerEvents=1;fontColor=#FFFFFF;labelBackgroundColor=none;" parent="_ldT-Ky9Ip7e4IslxESC-3" vertex="1">
          <mxGeometry x="207" width="16" height="20" as="geometry">
            <mxRectangle width="16" height="20" as="alternateBounds" />
          </mxGeometry>
        </mxCell>
        <mxCell id="_ldT-Ky9Ip7e4IslxESC-17" value="" style="shape=partialRectangle;html=1;whiteSpace=wrap;connectable=0;strokeColor=#EEEEEE;overflow=hidden;fillColor=none;top=0;left=0;bottom=0;right=0;pointerEvents=1;fontColor=#FFFFFF;labelBackgroundColor=none;" parent="_ldT-Ky9Ip7e4IslxESC-3" vertex="1">
          <mxGeometry x="223" width="18" height="20" as="geometry">
            <mxRectangle width="18" height="20" as="alternateBounds" />
          </mxGeometry>
        </mxCell>
        <mxCell id="_ldT-Ky9Ip7e4IslxESC-18" value="" style="shape=partialRectangle;html=1;whiteSpace=wrap;connectable=0;strokeColor=#EEEEEE;overflow=hidden;fillColor=none;top=0;left=0;bottom=0;right=0;pointerEvents=1;fontColor=#FFFFFF;labelBackgroundColor=none;" parent="_ldT-Ky9Ip7e4IslxESC-3" vertex="1">
          <mxGeometry x="241" width="16" height="20" as="geometry">
            <mxRectangle width="16" height="20" as="alternateBounds" />
          </mxGeometry>
        </mxCell>
        <mxCell id="_ldT-Ky9Ip7e4IslxESC-19" value="" style="shape=partialRectangle;html=1;whiteSpace=wrap;connectable=0;strokeColor=#EEEEEE;overflow=hidden;fillColor=none;top=0;left=0;bottom=0;right=0;pointerEvents=1;fontColor=#FFFFFF;labelBackgroundColor=none;" parent="_ldT-Ky9Ip7e4IslxESC-3" vertex="1">
          <mxGeometry x="257" width="18" height="20" as="geometry">
            <mxRectangle width="18" height="20" as="alternateBounds" />
          </mxGeometry>
        </mxCell>
        <mxCell id="_ldT-Ky9Ip7e4IslxESC-20" value="" style="shape=partialRectangle;html=1;whiteSpace=wrap;connectable=0;strokeColor=#EEEEEE;overflow=hidden;fillColor=none;top=0;left=0;bottom=0;right=0;pointerEvents=1;fontColor=#FFFFFF;labelBackgroundColor=none;" parent="_ldT-Ky9Ip7e4IslxESC-3" vertex="1">
          <mxGeometry x="275" width="17" height="20" as="geometry">
            <mxRectangle width="17" height="20" as="alternateBounds" />
          </mxGeometry>
        </mxCell>
        <mxCell id="_ldT-Ky9Ip7e4IslxESC-21" value="" style="shape=partialRectangle;html=1;whiteSpace=wrap;connectable=0;strokeColor=#EEEEEE;overflow=hidden;fillColor=none;top=0;left=0;bottom=0;right=0;pointerEvents=1;fontColor=#FFFFFF;labelBackgroundColor=none;" parent="_ldT-Ky9Ip7e4IslxESC-3" vertex="1">
          <mxGeometry x="292" width="28" height="20" as="geometry">
            <mxRectangle width="28" height="20" as="alternateBounds" />
          </mxGeometry>
        </mxCell>
        <mxCell id="_ldT-Ky9Ip7e4IslxESC-36" value="" style="rounded=0;orthogonalLoop=1;jettySize=auto;html=1;strokeColor=#182E3E;endArrow=none;endFill=0;labelBackgroundColor=none;fontColor=default;" parent="1" source="_ldT-Ky9Ip7e4IslxESC-22" target="_ldT-Ky9Ip7e4IslxESC-35" edge="1">
          <mxGeometry relative="1" as="geometry" />
        </mxCell>
        <mxCell id="_ldT-Ky9Ip7e4IslxESC-38" value="" style="edgeStyle=none;shape=connector;rounded=0;orthogonalLoop=1;jettySize=auto;html=1;strokeColor=#182E3E;align=center;verticalAlign=middle;fontFamily=Helvetica;fontSize=11;fontColor=default;labelBackgroundColor=none;endArrow=none;endFill=0;" parent="1" source="_ldT-Ky9Ip7e4IslxESC-22" target="_ldT-Ky9Ip7e4IslxESC-40" edge="1">
          <mxGeometry relative="1" as="geometry">
            <mxPoint x="163" y="271" as="targetPoint" />
          </mxGeometry>
        </mxCell>
        <mxCell id="_ldT-Ky9Ip7e4IslxESC-22" value="Autor" style="whiteSpace=wrap;html=1;align=center;strokeColor=#EEEEEE;fontColor=#FFFFFF;fillColor=#56517E;rotation=0;labelBackgroundColor=none;" parent="1" vertex="1">
          <mxGeometry x="90" y="160" width="70" height="40" as="geometry" />
        </mxCell>
        <mxCell id="_ldT-Ky9Ip7e4IslxESC-25" value="Escreve" style="shape=rhombus;perimeter=rhombusPerimeter;whiteSpace=wrap;html=1;align=center;strokeColor=#EEEEEE;fontColor=#FFFFFF;fillColor=#56517E;labelBackgroundColor=none;" parent="1" vertex="1">
          <mxGeometry x="230" y="150" width="120" height="60" as="geometry" />
        </mxCell>
        <mxCell id="_ldT-Ky9Ip7e4IslxESC-26" value="Nome" style="ellipse;whiteSpace=wrap;html=1;align=center;strokeColor=#EEEEEE;fontColor=#FFFFFF;fillColor=#56517E;labelBackgroundColor=none;" parent="1" vertex="1">
          <mxGeometry x="10" y="110" width="100" height="40" as="geometry" />
        </mxCell>
        <mxCell id="_ldT-Ky9Ip7e4IslxESC-42" value="" style="rounded=0;orthogonalLoop=1;jettySize=auto;html=1;strokeColor=#182E3E;endArrow=none;endFill=0;labelBackgroundColor=none;fontColor=default;" parent="1" source="_ldT-Ky9Ip7e4IslxESC-27" target="_ldT-Ky9Ip7e4IslxESC-41" edge="1">
          <mxGeometry relative="1" as="geometry" />
        </mxCell>
        <mxCell id="_ldT-Ky9Ip7e4IslxESC-27" value="Livro" style="whiteSpace=wrap;html=1;align=center;strokeColor=#EEEEEE;fontColor=#FFFFFF;fillColor=#56517E;labelBackgroundColor=none;" parent="1" vertex="1">
          <mxGeometry x="380" y="160" width="100" height="40" as="geometry" />
        </mxCell>
        <mxCell id="_ldT-Ky9Ip7e4IslxESC-29" value="" style="endArrow=none;html=1;rounded=0;strokeColor=#182E3E;labelBackgroundColor=none;fontColor=default;" parent="1" source="_ldT-Ky9Ip7e4IslxESC-22" target="_ldT-Ky9Ip7e4IslxESC-26" edge="1">
          <mxGeometry relative="1" as="geometry">
            <mxPoint x="360" y="270" as="sourcePoint" />
            <mxPoint x="520" y="270" as="targetPoint" />
          </mxGeometry>
        </mxCell>
        <mxCell id="_ldT-Ky9Ip7e4IslxESC-30" value="" style="endArrow=none;html=1;rounded=0;labelBackgroundColor=none;fontColor=default;" parent="1" source="_ldT-Ky9Ip7e4IslxESC-25" target="_ldT-Ky9Ip7e4IslxESC-27" edge="1">
          <mxGeometry relative="1" as="geometry">
            <mxPoint x="360" y="270" as="sourcePoint" />
            <mxPoint x="520" y="270" as="targetPoint" />
          </mxGeometry>
        </mxCell>
        <mxCell id="_ldT-Ky9Ip7e4IslxESC-31" value="" style="endArrow=none;html=1;rounded=0;strokeColor=#182E3E;labelBackgroundColor=none;fontColor=default;" parent="1" source="_ldT-Ky9Ip7e4IslxESC-22" target="_ldT-Ky9Ip7e4IslxESC-25" edge="1">
          <mxGeometry relative="1" as="geometry">
            <mxPoint x="360" y="270" as="sourcePoint" />
            <mxPoint x="520" y="270" as="targetPoint" />
          </mxGeometry>
        </mxCell>
        <mxCell id="_ldT-Ky9Ip7e4IslxESC-32" value="Email" style="ellipse;whiteSpace=wrap;html=1;align=center;strokeColor=#EEEEEE;fontColor=#FFFFFF;fillColor=#56517E;labelBackgroundColor=none;" parent="1" vertex="1">
          <mxGeometry x="10" y="210" width="100" height="40" as="geometry" />
        </mxCell>
        <mxCell id="_ldT-Ky9Ip7e4IslxESC-34" value="" style="endArrow=none;html=1;rounded=0;strokeColor=#182E3E;labelBackgroundColor=none;fontColor=default;" parent="1" source="_ldT-Ky9Ip7e4IslxESC-22" target="_ldT-Ky9Ip7e4IslxESC-32" edge="1">
          <mxGeometry relative="1" as="geometry">
            <mxPoint x="360" y="270" as="sourcePoint" />
            <mxPoint x="520" y="270" as="targetPoint" />
          </mxGeometry>
        </mxCell>
        <mxCell id="_ldT-Ky9Ip7e4IslxESC-35" value="Data de nascimento" style="ellipse;whiteSpace=wrap;html=1;align=center;strokeColor=#EEEEEE;fontColor=#FFFFFF;fillColor=#56517E;labelBackgroundColor=none;" parent="1" vertex="1">
          <mxGeometry x="150" y="110" width="100" height="40" as="geometry" />
        </mxCell>
        <mxCell id="_ldT-Ky9Ip7e4IslxESC-40" value="NÃºmero de telemÃ³vel" style="ellipse;whiteSpace=wrap;html=1;align=center;strokeColor=#EEEEEE;fontColor=#FFFFFF;fillColor=#56517E;labelBackgroundColor=none;" parent="1" vertex="1">
          <mxGeometry x="150" y="210" width="100" height="40" as="geometry" />
        </mxCell>
        <mxCell id="_ldT-Ky9Ip7e4IslxESC-41" value="TÃ­tulo" style="ellipse;whiteSpace=wrap;html=1;align=center;strokeColor=#EEEEEE;fontFamily=Helvetica;fontSize=11;fontColor=#FFFFFF;labelBackgroundColor=none;fillColor=#56517E;" parent="1" vertex="1">
          <mxGeometry x="330" y="110" width="100" height="40" as="geometry" />
        </mxCell>
        <mxCell id="_ldT-Ky9Ip7e4IslxESC-44" value="" style="rounded=0;orthogonalLoop=1;jettySize=auto;html=1;strokeColor=#182E3E;endArrow=none;endFill=0;labelBackgroundColor=none;fontColor=default;" parent="1" source="_ldT-Ky9Ip7e4IslxESC-46" target="_ldT-Ky9Ip7e4IslxESC-27" edge="1">
          <mxGeometry relative="1" as="geometry" />
        </mxCell>
        <mxCell id="_ldT-Ky9Ip7e4IslxESC-47" value="" style="edgeStyle=none;shape=connector;rounded=0;orthogonalLoop=1;jettySize=auto;html=1;strokeColor=#182E3E;align=center;verticalAlign=middle;fontFamily=Helvetica;fontSize=11;fontColor=default;labelBackgroundColor=none;endArrow=none;endFill=0;" parent="1" source="_ldT-Ky9Ip7e4IslxESC-43" target="_ldT-Ky9Ip7e4IslxESC-46" edge="1">
          <mxGeometry relative="1" as="geometry" />
        </mxCell>
        <mxCell id="_ldT-Ky9Ip7e4IslxESC-43" value="Editora" style="whiteSpace=wrap;html=1;align=center;strokeColor=#EEEEEE;fontColor=#FFFFFF;fillColor=#56517E;labelBackgroundColor=none;" parent="1" vertex="1">
          <mxGeometry x="660" y="160" width="100" height="40" as="geometry" />
        </mxCell>
        <mxCell id="_ldT-Ky9Ip7e4IslxESC-46" value="Pertence" style="shape=rhombus;perimeter=rhombusPerimeter;whiteSpace=wrap;html=1;align=center;strokeColor=#EEEEEE;fontFamily=Helvetica;fontSize=11;fontColor=#FFFFFF;labelBackgroundColor=none;fillColor=#56517E;" parent="1" vertex="1">
          <mxGeometry x="510" y="150" width="120" height="60" as="geometry" />
        </mxCell>
        <mxCell id="_ldT-Ky9Ip7e4IslxESC-49" value="" style="edgeStyle=none;shape=connector;rounded=0;orthogonalLoop=1;jettySize=auto;html=1;strokeColor=#182E3E;align=center;verticalAlign=middle;fontFamily=Helvetica;fontSize=11;fontColor=default;labelBackgroundColor=none;endArrow=none;endFill=0;" parent="1" source="_ldT-Ky9Ip7e4IslxESC-48" target="_ldT-Ky9Ip7e4IslxESC-27" edge="1">
          <mxGeometry relative="1" as="geometry" />
        </mxCell>
        <mxCell id="_ldT-Ky9Ip7e4IslxESC-48" value="Categoria" style="ellipse;whiteSpace=wrap;html=1;align=center;strokeColor=#EEEEEE;verticalAlign=middle;fontFamily=Helvetica;fontSize=11;fontColor=#FFFFFF;labelBackgroundColor=none;fillColor=#56517E;" parent="1" vertex="1">
          <mxGeometry x="470" y="110" width="100" height="40" as="geometry" />
        </mxCell>
        <mxCell id="_ldT-Ky9Ip7e4IslxESC-50" value="Aluno" style="whiteSpace=wrap;html=1;align=center;strokeColor=#EEEEEE;verticalAlign=middle;fontFamily=Helvetica;fontSize=11;fontColor=#FFFFFF;labelBackgroundColor=none;fillColor=#56517E;" parent="1" vertex="1">
          <mxGeometry x="71" y="310" width="100" height="40" as="geometry" />
        </mxCell>
        <mxCell id="_ldT-Ky9Ip7e4IslxESC-51" value="Turma" style="whiteSpace=wrap;html=1;align=center;strokeColor=#EEEEEE;verticalAlign=middle;fontFamily=Helvetica;fontSize=11;fontColor=#FFFFFF;labelBackgroundColor=none;fillColor=#56517E;" parent="1" vertex="1">
          <mxGeometry x="346" y="310" width="100" height="40" as="geometry" />
        </mxCell>
        <mxCell id="_ldT-Ky9Ip7e4IslxESC-52" value="Disciplina" style="whiteSpace=wrap;html=1;align=center;strokeColor=#EEEEEE;verticalAlign=middle;fontFamily=Helvetica;fontSize=11;fontColor=#FFFFFF;labelBackgroundColor=none;fillColor=#56517E;" parent="1" vertex="1">
          <mxGeometry x="656" y="310" width="100" height="40" as="geometry" />
        </mxCell>
        <mxCell id="_ldT-Ky9Ip7e4IslxESC-54" value="" style="edgeStyle=none;shape=connector;rounded=0;orthogonalLoop=1;jettySize=auto;html=1;strokeColor=#182E3E;align=center;verticalAlign=middle;fontFamily=Helvetica;fontSize=11;fontColor=default;labelBackgroundColor=none;endArrow=none;endFill=0;" parent="1" source="_ldT-Ky9Ip7e4IslxESC-53" target="_ldT-Ky9Ip7e4IslxESC-50" edge="1">
          <mxGeometry relative="1" as="geometry">
            <mxPoint x="181" y="330" as="sourcePoint" />
          </mxGeometry>
        </mxCell>
        <mxCell id="_ldT-Ky9Ip7e4IslxESC-55" value="" style="edgeStyle=none;shape=connector;rounded=0;orthogonalLoop=1;jettySize=auto;html=1;strokeColor=#182E3E;align=center;verticalAlign=middle;fontFamily=Helvetica;fontSize=11;fontColor=default;labelBackgroundColor=none;endArrow=none;endFill=0;" parent="1" target="_ldT-Ky9Ip7e4IslxESC-51" edge="1">
          <mxGeometry relative="1" as="geometry">
            <mxPoint x="301" y="330" as="sourcePoint" />
          </mxGeometry>
        </mxCell>
        <mxCell id="_ldT-Ky9Ip7e4IslxESC-53" value="Pertence" style="shape=rhombus;perimeter=rhombusPerimeter;whiteSpace=wrap;html=1;align=center;strokeColor=#EEEEEE;verticalAlign=middle;fontFamily=Helvetica;fontSize=11;fontColor=#FFFFFF;labelBackgroundColor=none;fillColor=#56517E;" parent="1" vertex="1">
          <mxGeometry x="186" y="300" width="120" height="60" as="geometry" />
        </mxCell>
        <mxCell id="_ldT-Ky9Ip7e4IslxESC-58" value="" style="edgeStyle=none;shape=connector;rounded=0;orthogonalLoop=1;jettySize=auto;html=1;strokeColor=#182E3E;align=center;verticalAlign=middle;fontFamily=Helvetica;fontSize=11;fontColor=default;labelBackgroundColor=none;endArrow=none;endFill=0;" parent="1" source="_ldT-Ky9Ip7e4IslxESC-57" target="_ldT-Ky9Ip7e4IslxESC-51" edge="1">
          <mxGeometry relative="1" as="geometry">
            <mxPoint x="511" y="330" as="sourcePoint" />
          </mxGeometry>
        </mxCell>
        <mxCell id="_ldT-Ky9Ip7e4IslxESC-59" value="" style="edgeStyle=none;shape=connector;rounded=0;orthogonalLoop=1;jettySize=auto;html=1;strokeColor=#182E3E;align=center;verticalAlign=middle;fontFamily=Helvetica;fontSize=11;fontColor=default;labelBackgroundColor=none;endArrow=none;endFill=0;" parent="1" source="_ldT-Ky9Ip7e4IslxESC-57" target="_ldT-Ky9Ip7e4IslxESC-52" edge="1">
          <mxGeometry relative="1" as="geometry">
            <mxPoint x="631" y="330" as="sourcePoint" />
          </mxGeometry>
        </mxCell>
        <mxCell id="_ldT-Ky9Ip7e4IslxESC-57" value="Aprende" style="shape=rhombus;perimeter=rhombusPerimeter;whiteSpace=wrap;html=1;align=center;strokeColor=#EEEEEE;verticalAlign=middle;fontFamily=Helvetica;fontSize=11;fontColor=#FFFFFF;labelBackgroundColor=none;fillColor=#56517E;" parent="1" vertex="1">
          <mxGeometry x="496" y="300" width="120" height="60" as="geometry" />
        </mxCell>
        <mxCell id="_ldT-Ky9Ip7e4IslxESC-60" value="Paciente" style="whiteSpace=wrap;html=1;align=center;strokeColor=#EEEEEE;verticalAlign=middle;fontFamily=Helvetica;fontSize=11;fontColor=#FFFFFF;labelBackgroundColor=none;fillColor=#56517E;" parent="1" vertex="1">
          <mxGeometry x="34" y="420" width="100" height="40" as="geometry" />
        </mxCell>
        <mxCell id="_ldT-Ky9Ip7e4IslxESC-65" value="" style="edgeStyle=none;shape=connector;rounded=0;orthogonalLoop=1;jettySize=auto;html=1;strokeColor=#182E3E;align=center;verticalAlign=middle;fontFamily=Helvetica;fontSize=11;fontColor=default;labelBackgroundColor=none;endArrow=none;endFill=0;" parent="1" source="_ldT-Ky9Ip7e4IslxESC-61" target="_ldT-Ky9Ip7e4IslxESC-62" edge="1">
          <mxGeometry relative="1" as="geometry">
            <mxPoint x="324" y="440" as="sourcePoint" />
          </mxGeometry>
        </mxCell>
        <mxCell id="_ldT-Ky9Ip7e4IslxESC-66" value="" style="edgeStyle=none;shape=connector;rounded=0;orthogonalLoop=1;jettySize=auto;html=1;strokeColor=#182E3E;align=center;verticalAlign=middle;fontFamily=Helvetica;fontSize=11;fontColor=default;labelBackgroundColor=none;endArrow=none;endFill=0;" parent="1" source="_ldT-Ky9Ip7e4IslxESC-61" target="_ldT-Ky9Ip7e4IslxESC-60" edge="1">
          <mxGeometry relative="1" as="geometry">
            <mxPoint x="204" y="440" as="sourcePoint" />
          </mxGeometry>
        </mxCell>
        <mxCell id="_ldT-Ky9Ip7e4IslxESC-61" value="Trata" style="shape=rhombus;perimeter=rhombusPerimeter;whiteSpace=wrap;html=1;align=center;strokeColor=#EEEEEE;verticalAlign=middle;fontFamily=Helvetica;fontSize=11;fontColor=#FFFFFF;labelBackgroundColor=none;fillColor=#56517E;" parent="1" vertex="1">
          <mxGeometry x="186" y="410" width="120" height="60" as="geometry" />
        </mxCell>
        <mxCell id="_ldT-Ky9Ip7e4IslxESC-62" value="MÃ©dico" style="whiteSpace=wrap;html=1;align=center;strokeColor=#EEEEEE;verticalAlign=middle;fontFamily=Helvetica;fontSize=11;fontColor=#FFFFFF;labelBackgroundColor=none;fillColor=#56517E;" parent="1" vertex="1">
          <mxGeometry x="374" y="420" width="100" height="40" as="geometry" />
        </mxCell>
        <mxCell id="_ldT-Ky9Ip7e4IslxESC-67" value="" style="edgeStyle=none;shape=connector;rounded=0;orthogonalLoop=1;jettySize=auto;html=1;strokeColor=#182E3E;align=center;verticalAlign=middle;fontFamily=Helvetica;fontSize=11;fontColor=default;labelBackgroundColor=none;endArrow=none;endFill=0;" parent="1" source="_ldT-Ky9Ip7e4IslxESC-63" target="_ldT-Ky9Ip7e4IslxESC-62" edge="1">
          <mxGeometry relative="1" as="geometry">
            <mxPoint x="524" y="440" as="sourcePoint" />
          </mxGeometry>
        </mxCell>
        <mxCell id="_ldT-Ky9Ip7e4IslxESC-68" value="" style="edgeStyle=none;shape=connector;rounded=0;orthogonalLoop=1;jettySize=auto;html=1;strokeColor=#182E3E;align=center;verticalAlign=middle;fontFamily=Helvetica;fontSize=11;fontColor=default;labelBackgroundColor=none;endArrow=none;endFill=0;" parent="1" source="_ldT-Ky9Ip7e4IslxESC-63" target="_ldT-Ky9Ip7e4IslxESC-64" edge="1">
          <mxGeometry relative="1" as="geometry">
            <mxPoint x="644" y="440" as="sourcePoint" />
          </mxGeometry>
        </mxCell>
        <mxCell id="_ldT-Ky9Ip7e4IslxESC-63" value="Trabalha" style="shape=rhombus;perimeter=rhombusPerimeter;whiteSpace=wrap;html=1;align=center;strokeColor=#EEEEEE;verticalAlign=middle;fontFamily=Helvetica;fontSize=11;fontColor=#FFFFFF;labelBackgroundColor=none;fillColor=#56517E;" parent="1" vertex="1">
          <mxGeometry x="536" y="410" width="120" height="60" as="geometry" />
        </mxCell>
        <mxCell id="_ldT-Ky9Ip7e4IslxESC-64" value="Departamento" style="whiteSpace=wrap;html=1;align=center;strokeColor=#EEEEEE;verticalAlign=middle;fontFamily=Helvetica;fontSize=11;fontColor=#FFFFFF;labelBackgroundColor=none;fillColor=#56517E;" parent="1" vertex="1">
          <mxGeometry x="694" y="420" width="100" height="40" as="geometry" />
        </mxCell>
        <mxCell id="_ldT-Ky9Ip7e4IslxESC-69" value="VÃ´o" style="whiteSpace=wrap;html=1;align=center;strokeColor=#EEEEEE;verticalAlign=middle;fontFamily=Helvetica;fontSize=11;fontColor=#FFFFFF;labelBackgroundColor=none;fillColor=#56517E;" parent="1" vertex="1">
          <mxGeometry x="521.5" y="575" width="100" height="40" as="geometry" />
        </mxCell>
        <mxCell id="_ldT-Ky9Ip7e4IslxESC-85" value="" style="edgeStyle=none;shape=connector;rounded=0;orthogonalLoop=1;jettySize=auto;html=1;strokeColor=#182E3E;align=center;verticalAlign=middle;fontFamily=Helvetica;fontSize=11;fontColor=default;labelBackgroundColor=none;endArrow=none;endFill=0;" parent="1" source="_ldT-Ky9Ip7e4IslxESC-70" target="_ldT-Ky9Ip7e4IslxESC-71" edge="1">
          <mxGeometry relative="1" as="geometry" />
        </mxCell>
        <mxCell id="_ldT-Ky9Ip7e4IslxESC-70" value="MatrÃ­cula" style="ellipse;whiteSpace=wrap;html=1;align=center;strokeColor=#EEEEEE;verticalAlign=middle;fontFamily=Helvetica;fontSize=11;fontColor=#FFFFFF;labelBackgroundColor=none;fillColor=#56517E;" parent="1" vertex="1">
          <mxGeometry x="296.5" y="510" width="100" height="40" as="geometry" />
        </mxCell>
        <mxCell id="_ldT-Ky9Ip7e4IslxESC-71" value="AviÃ£o" style="whiteSpace=wrap;html=1;align=center;strokeColor=#EEEEEE;verticalAlign=middle;fontFamily=Helvetica;fontSize=11;fontColor=#FFFFFF;labelBackgroundColor=none;fillColor=#56517E;" parent="1" vertex="1">
          <mxGeometry x="230" y="575" width="100" height="40" as="geometry" />
        </mxCell>
        <mxCell id="_ldT-Ky9Ip7e4IslxESC-73" value="" style="edgeStyle=none;shape=connector;rounded=0;orthogonalLoop=1;jettySize=auto;html=1;strokeColor=#182E3E;align=center;verticalAlign=middle;fontFamily=Helvetica;fontSize=11;fontColor=default;labelBackgroundColor=none;endArrow=none;endFill=0;startArrow=ERone;startFill=0;" parent="1" source="_ldT-Ky9Ip7e4IslxESC-71" target="_ldT-Ky9Ip7e4IslxESC-72" edge="1">
          <mxGeometry relative="1" as="geometry" />
        </mxCell>
        <mxCell id="RqFdxI-LGkWdY0zvhsHZ-23" value="" style="edgeLabel;html=1;align=center;verticalAlign=middle;resizable=0;points=[];strokeColor=#EEEEEE;fontColor=#FFFFFF;fillColor=#56517E;" parent="_ldT-Ky9Ip7e4IslxESC-73" vertex="1" connectable="0">
          <mxGeometry x="0.8137" relative="1" as="geometry">
            <mxPoint as="offset" />
          </mxGeometry>
        </mxCell>
        <mxCell id="_ldT-Ky9Ip7e4IslxESC-74" value="" style="edgeStyle=none;shape=connector;rounded=0;orthogonalLoop=1;jettySize=auto;html=1;strokeColor=#182E3E;align=center;verticalAlign=middle;fontFamily=Helvetica;fontSize=11;fontColor=default;labelBackgroundColor=none;endArrow=ERmany;endFill=0;startArrow=none;startFill=0;" parent="1" source="_ldT-Ky9Ip7e4IslxESC-72" target="_ldT-Ky9Ip7e4IslxESC-69" edge="1">
          <mxGeometry relative="1" as="geometry" />
        </mxCell>
        <mxCell id="_ldT-Ky9Ip7e4IslxESC-72" value="Performa" style="shape=rhombus;perimeter=rhombusPerimeter;whiteSpace=wrap;html=1;align=center;strokeColor=#EEEEEE;verticalAlign=middle;fontFamily=Helvetica;fontSize=11;fontColor=#FFFFFF;labelBackgroundColor=none;fillColor=#56517E;" parent="1" vertex="1">
          <mxGeometry x="371.5" y="565" width="120" height="60" as="geometry" />
        </mxCell>
        <mxCell id="_ldT-Ky9Ip7e4IslxESC-84" value="" style="edgeStyle=none;shape=connector;rounded=0;orthogonalLoop=1;jettySize=auto;html=1;strokeColor=#182E3E;align=center;verticalAlign=middle;fontFamily=Helvetica;fontSize=11;fontColor=default;labelBackgroundColor=none;endArrow=none;endFill=0;" parent="1" source="_ldT-Ky9Ip7e4IslxESC-75" target="_ldT-Ky9Ip7e4IslxESC-71" edge="1">
          <mxGeometry relative="1" as="geometry" />
        </mxCell>
        <mxCell id="_ldT-Ky9Ip7e4IslxESC-75" value="Marca" style="ellipse;whiteSpace=wrap;html=1;align=center;strokeColor=#EEEEEE;verticalAlign=middle;fontFamily=Helvetica;fontSize=11;fontColor=#FFFFFF;labelBackgroundColor=none;fillColor=#56517E;" parent="1" vertex="1">
          <mxGeometry x="126.5" y="510" width="100" height="40" as="geometry" />
        </mxCell>
        <mxCell id="_ldT-Ky9Ip7e4IslxESC-83" value="" style="edgeStyle=none;shape=connector;rounded=0;orthogonalLoop=1;jettySize=auto;html=1;strokeColor=#182E3E;align=center;verticalAlign=middle;fontFamily=Helvetica;fontSize=11;fontColor=default;labelBackgroundColor=none;endArrow=none;endFill=0;" parent="1" source="_ldT-Ky9Ip7e4IslxESC-76" target="_ldT-Ky9Ip7e4IslxESC-71" edge="1">
          <mxGeometry relative="1" as="geometry" />
        </mxCell>
        <mxCell id="_ldT-Ky9Ip7e4IslxESC-76" value="Autonomia (em horas)" style="ellipse;whiteSpace=wrap;html=1;align=center;strokeColor=#EEEEEE;verticalAlign=middle;fontFamily=Helvetica;fontSize=11;fontColor=#FFFFFF;labelBackgroundColor=none;fillColor=#56517E;" parent="1" vertex="1">
          <mxGeometry x="116.5" y="575" width="100" height="40" as="geometry" />
        </mxCell>
        <mxCell id="_ldT-Ky9Ip7e4IslxESC-82" value="" style="edgeStyle=none;shape=connector;rounded=0;orthogonalLoop=1;jettySize=auto;html=1;strokeColor=#182E3E;align=center;verticalAlign=middle;fontFamily=Helvetica;fontSize=11;fontColor=default;labelBackgroundColor=none;endArrow=none;endFill=0;" parent="1" source="_ldT-Ky9Ip7e4IslxESC-77" target="_ldT-Ky9Ip7e4IslxESC-69" edge="1">
          <mxGeometry relative="1" as="geometry">
            <mxPoint x="646.5" y="595" as="sourcePoint" />
          </mxGeometry>
        </mxCell>
        <mxCell id="_ldT-Ky9Ip7e4IslxESC-77" value="Hora" style="ellipse;whiteSpace=wrap;html=1;align=center;strokeColor=#EEEEEE;verticalAlign=middle;fontFamily=Helvetica;fontSize=11;fontColor=#FFFFFF;labelBackgroundColor=none;fillColor=#56517E;" parent="1" vertex="1">
          <mxGeometry x="631.5" y="575" width="100" height="40" as="geometry" />
        </mxCell>
        <mxCell id="_ldT-Ky9Ip7e4IslxESC-81" value="" style="edgeStyle=none;shape=connector;rounded=0;orthogonalLoop=1;jettySize=auto;html=1;strokeColor=#182E3E;align=center;verticalAlign=middle;fontFamily=Helvetica;fontSize=11;fontColor=default;labelBackgroundColor=none;endArrow=none;endFill=0;" parent="1" source="_ldT-Ky9Ip7e4IslxESC-78" target="_ldT-Ky9Ip7e4IslxESC-69" edge="1">
          <mxGeometry relative="1" as="geometry" />
        </mxCell>
        <mxCell id="_ldT-Ky9Ip7e4IslxESC-78" value="NÃºmero de referÃªncia" style="ellipse;whiteSpace=wrap;html=1;align=center;strokeColor=#EEEEEE;verticalAlign=middle;fontFamily=Helvetica;fontSize=11;fontColor=#FFFFFF;labelBackgroundColor=none;fillColor=#56517E;" parent="1" vertex="1">
          <mxGeometry x="586.5" y="510" width="100" height="40" as="geometry" />
        </mxCell>
        <mxCell id="_ldT-Ky9Ip7e4IslxESC-80" value="" style="edgeStyle=none;shape=connector;rounded=0;orthogonalLoop=1;jettySize=auto;html=1;strokeColor=#182E3E;align=center;verticalAlign=middle;fontFamily=Helvetica;fontSize=11;fontColor=default;labelBackgroundColor=none;endArrow=none;endFill=0;" parent="1" source="_ldT-Ky9Ip7e4IslxESC-79" target="_ldT-Ky9Ip7e4IslxESC-69" edge="1">
          <mxGeometry relative="1" as="geometry" />
        </mxCell>
        <mxCell id="_ldT-Ky9Ip7e4IslxESC-79" value="Data" style="ellipse;whiteSpace=wrap;html=1;align=center;strokeColor=#EEEEEE;verticalAlign=middle;fontFamily=Helvetica;fontSize=11;fontColor=#FFFFFF;labelBackgroundColor=none;fillColor=#56517E;" parent="1" vertex="1">
          <mxGeometry x="456.5" y="510" width="100" height="40" as="geometry" />
        </mxCell>
        <mxCell id="_ldT-Ky9Ip7e4IslxESC-86" style="edgeStyle=none;shape=connector;rounded=0;orthogonalLoop=1;jettySize=auto;html=1;exitX=1;exitY=1;exitDx=0;exitDy=0;strokeColor=#182E3E;align=center;verticalAlign=middle;fontFamily=Helvetica;fontSize=11;fontColor=default;labelBackgroundColor=none;endArrow=none;endFill=0;" parent="1" source="_ldT-Ky9Ip7e4IslxESC-75" target="_ldT-Ky9Ip7e4IslxESC-75" edge="1">
          <mxGeometry relative="1" as="geometry" />
        </mxCell>
        <mxCell id="RqFdxI-LGkWdY0zvhsHZ-5" value="" style="rounded=0;orthogonalLoop=1;jettySize=auto;html=1;endArrow=none;endFill=0;labelBackgroundColor=none;strokeColor=#182E3E;fontColor=default;startArrow=ERone;startFill=0;" parent="1" source="RqFdxI-LGkWdY0zvhsHZ-1" target="RqFdxI-LGkWdY0zvhsHZ-44" edge="1">
          <mxGeometry relative="1" as="geometry">
            <mxPoint x="337.25" y="794.5" as="targetPoint" />
          </mxGeometry>
        </mxCell>
        <mxCell id="RqFdxI-LGkWdY0zvhsHZ-1" value="MÃ©dico" style="whiteSpace=wrap;html=1;align=center;labelBackgroundColor=none;fillColor=#56517E;strokeColor=#EEEEEE;fontColor=#FFFFFF;" parent="1" vertex="1">
          <mxGeometry x="41" y="774.5" width="100" height="40" as="geometry" />
        </mxCell>
        <mxCell id="RqFdxI-LGkWdY0zvhsHZ-6" value="" style="rounded=0;orthogonalLoop=1;jettySize=auto;html=1;endArrow=none;endFill=0;labelBackgroundColor=none;strokeColor=#182E3E;fontColor=default;startArrow=ERmany;startFill=0;" parent="1" source="RqFdxI-LGkWdY0zvhsHZ-42" target="RqFdxI-LGkWdY0zvhsHZ-46" edge="1">
          <mxGeometry relative="1" as="geometry">
            <mxPoint x="457.25" y="794.5" as="sourcePoint" />
          </mxGeometry>
        </mxCell>
        <mxCell id="RqFdxI-LGkWdY0zvhsHZ-11" value="" style="edgeStyle=none;shape=connector;rounded=0;orthogonalLoop=1;jettySize=auto;html=1;strokeColor=#182E3E;align=center;verticalAlign=middle;fontFamily=Helvetica;fontSize=11;fontColor=default;labelBackgroundColor=none;endArrow=none;endFill=0;" parent="1" source="RqFdxI-LGkWdY0zvhsHZ-42" target="RqFdxI-LGkWdY0zvhsHZ-9" edge="1">
          <mxGeometry relative="1" as="geometry">
            <mxPoint x="429.55880464267034" y="808.3455976786647" as="sourcePoint" />
          </mxGeometry>
        </mxCell>
        <mxCell id="RqFdxI-LGkWdY0zvhsHZ-2" value="Paciente" style="whiteSpace=wrap;html=1;align=center;labelBackgroundColor=none;fillColor=#56517E;strokeColor=#EEEEEE;fontColor=#FFFFFF;" parent="1" vertex="1">
          <mxGeometry x="677" y="774.5" width="100" height="40" as="geometry" />
        </mxCell>
        <mxCell id="RqFdxI-LGkWdY0zvhsHZ-14" value="" style="edgeStyle=none;shape=connector;rounded=0;orthogonalLoop=1;jettySize=auto;html=1;strokeColor=#182E3E;align=center;verticalAlign=middle;fontFamily=Helvetica;fontSize=11;fontColor=default;labelBackgroundColor=none;endArrow=none;endFill=0;" parent="1" source="RqFdxI-LGkWdY0zvhsHZ-8" target="RqFdxI-LGkWdY0zvhsHZ-42" edge="1">
          <mxGeometry relative="1" as="geometry">
            <mxPoint x="374.6167711598746" y="775.8166144200627" as="targetPoint" />
          </mxGeometry>
        </mxCell>
        <mxCell id="RqFdxI-LGkWdY0zvhsHZ-8" value="Hora" style="ellipse;whiteSpace=wrap;html=1;align=center;labelBackgroundColor=none;fillColor=#56517E;strokeColor=#EEEEEE;fontColor=#FFFFFF;" parent="1" vertex="1">
          <mxGeometry x="257" y="700" width="100" height="40" as="geometry" />
        </mxCell>
        <mxCell id="RqFdxI-LGkWdY0zvhsHZ-9" value="Data" style="ellipse;whiteSpace=wrap;html=1;align=center;labelBackgroundColor=none;fillColor=#56517E;strokeColor=#EEEEEE;fontColor=#FFFFFF;" parent="1" vertex="1">
          <mxGeometry x="477" y="830" width="100" height="40" as="geometry" />
        </mxCell>
        <mxCell id="RqFdxI-LGkWdY0zvhsHZ-16" value="" style="edgeStyle=none;shape=connector;rounded=0;orthogonalLoop=1;jettySize=auto;html=1;strokeColor=#182E3E;align=center;verticalAlign=middle;fontFamily=Helvetica;fontSize=11;fontColor=default;labelBackgroundColor=none;endArrow=none;endFill=0;" parent="1" source="RqFdxI-LGkWdY0zvhsHZ-15" target="RqFdxI-LGkWdY0zvhsHZ-42" edge="1">
          <mxGeometry relative="1" as="geometry">
            <mxPoint x="413.69336175395847" y="772.7216808769792" as="targetPoint" />
          </mxGeometry>
        </mxCell>
        <mxCell id="RqFdxI-LGkWdY0zvhsHZ-15" value="Valor" style="ellipse;whiteSpace=wrap;html=1;align=center;labelBackgroundColor=none;fillColor=#56517E;strokeColor=#EEEEEE;fontColor=#FFFFFF;" parent="1" vertex="1">
          <mxGeometry x="403.5" y="700" width="100" height="40" as="geometry" />
        </mxCell>
        <mxCell id="RqFdxI-LGkWdY0zvhsHZ-18" value="" style="rounded=0;orthogonalLoop=1;jettySize=auto;html=1;strokeColor=#182E3E;endArrow=ERmany;endFill=0;labelBackgroundColor=none;fontColor=default;" parent="1" source="RqFdxI-LGkWdY0zvhsHZ-17" target="RqFdxI-LGkWdY0zvhsHZ-1" edge="1">
          <mxGeometry relative="1" as="geometry" />
        </mxCell>
        <mxCell id="RqFdxI-LGkWdY0zvhsHZ-39" value="" style="edgeStyle=none;shape=connector;rounded=0;orthogonalLoop=1;jettySize=auto;html=1;strokeColor=#182E3E;align=center;verticalAlign=middle;fontFamily=Helvetica;fontSize=11;fontColor=default;labelBackgroundColor=default;endArrow=none;endFill=0;" parent="1" source="RqFdxI-LGkWdY0zvhsHZ-17" target="RqFdxI-LGkWdY0zvhsHZ-21" edge="1">
          <mxGeometry relative="1" as="geometry" />
        </mxCell>
        <mxCell id="RqFdxI-LGkWdY0zvhsHZ-17" value="Tem" style="shape=rhombus;perimeter=rhombusPerimeter;whiteSpace=wrap;html=1;align=center;strokeColor=#EEEEEE;fontColor=#FFFFFF;fillColor=#56517E;labelBackgroundColor=none;" parent="1" vertex="1">
          <mxGeometry x="31" y="860" width="120" height="60" as="geometry" />
        </mxCell>
        <mxCell id="RqFdxI-LGkWdY0zvhsHZ-38" value="" style="edgeStyle=none;shape=connector;rounded=0;orthogonalLoop=1;jettySize=auto;html=1;strokeColor=#182E3E;align=center;verticalAlign=middle;fontFamily=Helvetica;fontSize=11;fontColor=default;labelBackgroundColor=default;endArrow=none;endFill=0;startArrow=ERone;startFill=0;" parent="1" source="RqFdxI-LGkWdY0zvhsHZ-21" target="RqFdxI-LGkWdY0zvhsHZ-17" edge="1">
          <mxGeometry relative="1" as="geometry" />
        </mxCell>
        <mxCell id="RqFdxI-LGkWdY0zvhsHZ-40" value="" style="edgeStyle=none;shape=connector;rounded=0;orthogonalLoop=1;jettySize=auto;html=1;strokeColor=#182E3E;align=center;verticalAlign=middle;fontFamily=Helvetica;fontSize=11;fontColor=default;labelBackgroundColor=default;endArrow=ERone;endFill=0;" parent="1" source="RqFdxI-LGkWdY0zvhsHZ-45" target="RqFdxI-LGkWdY0zvhsHZ-21" edge="1">
          <mxGeometry relative="1" as="geometry">
            <mxPoint x="375.75" y="813.5" as="sourcePoint" />
          </mxGeometry>
        </mxCell>
        <mxCell id="RqFdxI-LGkWdY0zvhsHZ-21" value="Especialidade" style="whiteSpace=wrap;html=1;align=center;labelBackgroundColor=none;fillColor=#56517E;strokeColor=#EEEEEE;fontColor=#FFFFFF;" parent="1" vertex="1">
          <mxGeometry x="188" y="870" width="100" height="40" as="geometry" />
        </mxCell>
        <mxCell id="RqFdxI-LGkWdY0zvhsHZ-25" value="Nome" style="ellipse;whiteSpace=wrap;html=1;align=center;strokeColor=#EEEEEE;fontColor=#FFFFFF;fillColor=#56517E;" parent="1" vertex="1">
          <mxGeometry x="41" y="698" width="100" height="38.5" as="geometry" />
        </mxCell>
        <mxCell id="RqFdxI-LGkWdY0zvhsHZ-26" value="" style="endArrow=none;html=1;rounded=0;strokeColor=#182E3E;" parent="1" source="RqFdxI-LGkWdY0zvhsHZ-25" target="RqFdxI-LGkWdY0zvhsHZ-1" edge="1">
          <mxGeometry relative="1" as="geometry">
            <mxPoint x="273.75" y="702.5" as="sourcePoint" />
            <mxPoint x="433.75" y="702.5" as="targetPoint" />
          </mxGeometry>
        </mxCell>
        <mxCell id="RqFdxI-LGkWdY0zvhsHZ-27" value="Nome" style="ellipse;whiteSpace=wrap;html=1;align=center;strokeColor=#EEEEEE;fontColor=#FFFFFF;fillColor=#56517E;" parent="1" vertex="1">
          <mxGeometry x="717" y="700" width="100" height="40" as="geometry" />
        </mxCell>
        <mxCell id="RqFdxI-LGkWdY0zvhsHZ-29" value="" style="endArrow=none;html=1;rounded=0;strokeColor=#182E3E;" parent="1" source="RqFdxI-LGkWdY0zvhsHZ-2" target="RqFdxI-LGkWdY0zvhsHZ-27" edge="1">
          <mxGeometry relative="1" as="geometry">
            <mxPoint x="274.75" y="704.5" as="sourcePoint" />
            <mxPoint x="434.75" y="704.5" as="targetPoint" />
          </mxGeometry>
        </mxCell>
        <mxCell id="RqFdxI-LGkWdY0zvhsHZ-34" value="" style="edgeStyle=none;shape=connector;rounded=0;orthogonalLoop=1;jettySize=auto;html=1;strokeColor=#182E3E;align=center;verticalAlign=middle;fontFamily=Helvetica;fontSize=11;fontColor=default;labelBackgroundColor=default;endArrow=none;endFill=0;" parent="1" source="RqFdxI-LGkWdY0zvhsHZ-31" target="RqFdxI-LGkWdY0zvhsHZ-2" edge="1">
          <mxGeometry relative="1" as="geometry" />
        </mxCell>
        <mxCell id="RqFdxI-LGkWdY0zvhsHZ-31" value="Morada" style="ellipse;whiteSpace=wrap;html=1;align=center;strokeColor=#EEEEEE;fontColor=#FFFFFF;fillColor=#56517E;" parent="1" vertex="1">
          <mxGeometry x="667" y="860" width="100" height="40" as="geometry" />
        </mxCell>
        <mxCell id="RqFdxI-LGkWdY0zvhsHZ-33" value="" style="rounded=0;orthogonalLoop=1;jettySize=auto;html=1;strokeColor=#182E3E;endArrow=none;endFill=0;" parent="1" source="RqFdxI-LGkWdY0zvhsHZ-32" target="RqFdxI-LGkWdY0zvhsHZ-2" edge="1">
          <mxGeometry relative="1" as="geometry" />
        </mxCell>
        <mxCell id="RqFdxI-LGkWdY0zvhsHZ-32" value="Idade" style="ellipse;whiteSpace=wrap;html=1;align=center;strokeColor=#EEEEEE;fontColor=#FFFFFF;fillColor=#56517E;" parent="1" vertex="1">
          <mxGeometry x="587" y="700" width="100" height="40" as="geometry" />
        </mxCell>
        <mxCell id="RqFdxI-LGkWdY0zvhsHZ-42" value="Consulta" style="whiteSpace=wrap;html=1;align=center;labelBackgroundColor=none;fillColor=#56517E;strokeColor=#EEEEEE;fontColor=#FFFFFF;" parent="1" vertex="1">
          <mxGeometry x="337" y="774.5" width="100" height="40" as="geometry" />
        </mxCell>
        <mxCell id="RqFdxI-LGkWdY0zvhsHZ-44" value="Faz" style="shape=rhombus;perimeter=rhombusPerimeter;whiteSpace=wrap;html=1;align=center;strokeColor=#EEEEEE;fontColor=#FFFFFF;fillColor=#56517E;labelBackgroundColor=none;" parent="1" vertex="1">
          <mxGeometry x="178" y="764.5" width="120" height="60" as="geometry" />
        </mxCell>
        <mxCell id="RqFdxI-LGkWdY0zvhsHZ-45" value="Tem" style="shape=rhombus;perimeter=rhombusPerimeter;whiteSpace=wrap;html=1;align=center;strokeColor=#EEEEEE;fontColor=#FFFFFF;fillColor=#56517E;labelBackgroundColor=none;" parent="1" vertex="1">
          <mxGeometry x="327" y="860" width="120" height="60" as="geometry" />
        </mxCell>
        <mxCell id="RqFdxI-LGkWdY0zvhsHZ-47" value="" style="rounded=0;orthogonalLoop=1;jettySize=auto;html=1;endArrow=none;endFill=0;labelBackgroundColor=none;strokeColor=#182E3E;fontColor=default;startArrow=ERone;startFill=0;" parent="1" source="RqFdxI-LGkWdY0zvhsHZ-2" target="RqFdxI-LGkWdY0zvhsHZ-46" edge="1">
          <mxGeometry relative="1" as="geometry">
            <mxPoint x="563" y="796" as="sourcePoint" />
            <mxPoint x="437" y="799" as="targetPoint" />
          </mxGeometry>
        </mxCell>
        <mxCell id="RqFdxI-LGkWdY0zvhsHZ-46" value="Vai" style="shape=rhombus;perimeter=rhombusPerimeter;whiteSpace=wrap;html=1;align=center;strokeColor=#EEEEEE;fontColor=#FFFFFF;fillColor=#56517E;labelBackgroundColor=none;" parent="1" vertex="1">
          <mxGeometry x="503.5" y="764.5" width="120" height="60" as="geometry" />
        </mxCell>
        <mxCell id="RqFdxI-LGkWdY0zvhsHZ-48" value="" style="edgeStyle=none;shape=connector;rounded=0;orthogonalLoop=1;jettySize=auto;html=1;strokeColor=#182E3E;align=center;verticalAlign=middle;fontFamily=Helvetica;fontSize=11;fontColor=default;labelBackgroundColor=default;endArrow=none;endFill=0;startArrow=ERmany;startFill=0;" parent="1" source="RqFdxI-LGkWdY0zvhsHZ-42" target="RqFdxI-LGkWdY0zvhsHZ-45" edge="1">
          <mxGeometry relative="1" as="geometry">
            <mxPoint x="444" y="900" as="sourcePoint" />
            <mxPoint x="362" y="933" as="targetPoint" />
          </mxGeometry>
        </mxCell>
        <mxCell id="RqFdxI-LGkWdY0zvhsHZ-49" value="" style="edgeStyle=none;shape=connector;rounded=0;orthogonalLoop=1;jettySize=auto;html=1;strokeColor=#182E3E;align=center;verticalAlign=middle;fontFamily=Helvetica;fontSize=11;fontColor=default;labelBackgroundColor=default;endArrow=none;endFill=0;startArrow=ERmany;startFill=0;" parent="1" source="RqFdxI-LGkWdY0zvhsHZ-42" target="RqFdxI-LGkWdY0zvhsHZ-44" edge="1">
          <mxGeometry relative="1" as="geometry">
            <mxPoint x="325" y="917" as="sourcePoint" />
            <mxPoint x="243" y="950" as="targetPoint" />
          </mxGeometry>
        </mxCell>
        <mxCell id="RqFdxI-LGkWdY0zvhsHZ-51" value="Quarto" style="whiteSpace=wrap;html=1;align=center;labelBackgroundColor=none;fillColor=#56517E;strokeColor=#EEEEEE;fontColor=#FFFFFF;" parent="1" vertex="1">
          <mxGeometry x="159" y="1063" width="100" height="40" as="geometry" />
        </mxCell>
        <mxCell id="RqFdxI-LGkWdY0zvhsHZ-53" value="Cliente" style="whiteSpace=wrap;html=1;align=center;labelBackgroundColor=none;fillColor=#56517E;strokeColor=#EEEEEE;fontColor=#FFFFFF;" parent="1" vertex="1">
          <mxGeometry x="498" y="1061" width="100" height="40" as="geometry" />
        </mxCell>
        <mxCell id="RqFdxI-LGkWdY0zvhsHZ-54" value="Reserva" style="shape=rhombus;perimeter=rhombusPerimeter;whiteSpace=wrap;html=1;align=center;strokeColor=#EEEEEE;fontColor=#FFFFFF;fillColor=#56517E;labelBackgroundColor=none;" parent="1" vertex="1">
          <mxGeometry x="329" y="1053" width="120" height="60" as="geometry" />
        </mxCell>
        <mxCell id="RqFdxI-LGkWdY0zvhsHZ-55" value="" style="endArrow=none;html=1;rounded=0;strokeColor=#182E3E;align=center;verticalAlign=middle;fontFamily=Helvetica;fontSize=11;fontColor=default;labelBackgroundColor=default;startArrow=ERmany;startFill=0;" parent="1" source="RqFdxI-LGkWdY0zvhsHZ-53" target="RqFdxI-LGkWdY0zvhsHZ-54" edge="1">
          <mxGeometry relative="1" as="geometry">
            <mxPoint x="505" y="1062" as="sourcePoint" />
            <mxPoint x="345" y="1062" as="targetPoint" />
          </mxGeometry>
        </mxCell>
        <mxCell id="RqFdxI-LGkWdY0zvhsHZ-57" value="" style="endArrow=none;html=1;rounded=0;strokeColor=#182E3E;align=center;verticalAlign=middle;fontFamily=Helvetica;fontSize=11;fontColor=default;labelBackgroundColor=default;startArrow=ERmany;startFill=0;" parent="1" source="RqFdxI-LGkWdY0zvhsHZ-51" target="RqFdxI-LGkWdY0zvhsHZ-54" edge="1">
          <mxGeometry relative="1" as="geometry">
            <mxPoint x="345" y="1062" as="sourcePoint" />
            <mxPoint x="505" y="1062" as="targetPoint" />
          </mxGeometry>
        </mxCell>
        <mxCell id="RqFdxI-LGkWdY0zvhsHZ-76" style="edgeStyle=none;shape=connector;rounded=0;orthogonalLoop=1;jettySize=auto;html=1;strokeColor=#182E3E;align=center;verticalAlign=middle;fontFamily=Helvetica;fontSize=11;fontColor=default;labelBackgroundColor=default;endArrow=none;endFill=0;" parent="1" source="RqFdxI-LGkWdY0zvhsHZ-59" target="RqFdxI-LGkWdY0zvhsHZ-51" edge="1">
          <mxGeometry relative="1" as="geometry" />
        </mxCell>
        <mxCell id="RqFdxI-LGkWdY0zvhsHZ-59" value="NÃºmero" style="ellipse;whiteSpace=wrap;html=1;align=center;strokeColor=#EEEEEE;fontColor=#FFFFFF;fillColor=#56517E;" parent="1" vertex="1">
          <mxGeometry x="77" y="1118" width="100" height="40" as="geometry" />
        </mxCell>
        <mxCell id="RqFdxI-LGkWdY0zvhsHZ-72" style="edgeStyle=none;shape=connector;rounded=0;orthogonalLoop=1;jettySize=auto;html=1;strokeColor=#182E3E;align=center;verticalAlign=middle;fontFamily=Helvetica;fontSize=11;fontColor=default;labelBackgroundColor=default;endArrow=none;endFill=0;" parent="1" source="RqFdxI-LGkWdY0zvhsHZ-60" target="RqFdxI-LGkWdY0zvhsHZ-53" edge="1">
          <mxGeometry relative="1" as="geometry">
            <mxPoint x="805" y="1007" as="targetPoint" />
          </mxGeometry>
        </mxCell>
        <mxCell id="RqFdxI-LGkWdY0zvhsHZ-60" value="NIF" style="ellipse;whiteSpace=wrap;html=1;align=center;strokeColor=#EEEEEE;fontColor=#FFFFFF;fillColor=#56517E;" parent="1" vertex="1">
          <mxGeometry x="615" y="1004" width="100" height="40" as="geometry" />
        </mxCell>
        <mxCell id="RqFdxI-LGkWdY0zvhsHZ-73" style="edgeStyle=none;shape=connector;rounded=0;orthogonalLoop=1;jettySize=auto;html=1;strokeColor=#182E3E;align=center;verticalAlign=middle;fontFamily=Helvetica;fontSize=11;fontColor=default;labelBackgroundColor=default;endArrow=none;endFill=0;" parent="1" source="RqFdxI-LGkWdY0zvhsHZ-61" target="RqFdxI-LGkWdY0zvhsHZ-53" edge="1">
          <mxGeometry relative="1" as="geometry" />
        </mxCell>
        <mxCell id="RqFdxI-LGkWdY0zvhsHZ-61" value="Nome" style="ellipse;whiteSpace=wrap;html=1;align=center;strokeColor=#EEEEEE;fontColor=#FFFFFF;fillColor=#56517E;" parent="1" vertex="1">
          <mxGeometry x="637" y="1061" width="100" height="40" as="geometry" />
        </mxCell>
        <mxCell id="RqFdxI-LGkWdY0zvhsHZ-74" style="edgeStyle=none;shape=connector;rounded=0;orthogonalLoop=1;jettySize=auto;html=1;strokeColor=#182E3E;align=center;verticalAlign=middle;fontFamily=Helvetica;fontSize=11;fontColor=default;labelBackgroundColor=default;endArrow=none;endFill=0;" parent="1" source="RqFdxI-LGkWdY0zvhsHZ-62" target="RqFdxI-LGkWdY0zvhsHZ-53" edge="1">
          <mxGeometry relative="1" as="geometry" />
        </mxCell>
        <mxCell id="RqFdxI-LGkWdY0zvhsHZ-62" value="Nacionalidade" style="ellipse;whiteSpace=wrap;html=1;align=center;strokeColor=#EEEEEE;fontColor=#FFFFFF;fillColor=#56517E;" parent="1" vertex="1">
          <mxGeometry x="615" y="1116" width="100" height="40" as="geometry" />
        </mxCell>
        <mxCell id="RqFdxI-LGkWdY0zvhsHZ-75" style="edgeStyle=none;shape=connector;rounded=0;orthogonalLoop=1;jettySize=auto;html=1;strokeColor=#182E3E;align=center;verticalAlign=middle;fontFamily=Helvetica;fontSize=11;fontColor=default;labelBackgroundColor=default;endArrow=none;endFill=0;" parent="1" source="RqFdxI-LGkWdY0zvhsHZ-63" target="RqFdxI-LGkWdY0zvhsHZ-51" edge="1">
          <mxGeometry relative="1" as="geometry" />
        </mxCell>
        <mxCell id="RqFdxI-LGkWdY0zvhsHZ-63" value="Quantidade de camas" style="ellipse;whiteSpace=wrap;html=1;align=center;strokeColor=#EEEEEE;fontColor=#FFFFFF;fillColor=#56517E;" parent="1" vertex="1">
          <mxGeometry x="82" y="1004" width="100" height="40" as="geometry" />
        </mxCell>
        <mxCell id="RqFdxI-LGkWdY0zvhsHZ-66" value="Data" style="ellipse;whiteSpace=wrap;html=1;align=center;strokeColor=#EEEEEE;fontColor=#FFFFFF;fillColor=#56517E;" parent="1" vertex="1">
          <mxGeometry x="412" y="988" width="100" height="40" as="geometry" />
        </mxCell>
        <mxCell id="RqFdxI-LGkWdY0zvhsHZ-67" value="DuraÃ§Ã£o" style="ellipse;whiteSpace=wrap;html=1;align=center;strokeColor=#EEEEEE;fontColor=#FFFFFF;fillColor=#56517E;" parent="1" vertex="1">
          <mxGeometry x="259" y="988" width="100" height="40" as="geometry" />
        </mxCell>
        <mxCell id="RqFdxI-LGkWdY0zvhsHZ-68" value="" style="endArrow=none;html=1;rounded=0;strokeColor=#182E3E;align=center;verticalAlign=middle;fontFamily=Helvetica;fontSize=11;fontColor=default;labelBackgroundColor=default;" parent="1" source="RqFdxI-LGkWdY0zvhsHZ-54" target="RqFdxI-LGkWdY0zvhsHZ-66" edge="1">
          <mxGeometry relative="1" as="geometry">
            <mxPoint x="345" y="1062" as="sourcePoint" />
            <mxPoint x="505" y="1062" as="targetPoint" />
          </mxGeometry>
        </mxCell>
        <mxCell id="RqFdxI-LGkWdY0zvhsHZ-69" value="" style="endArrow=none;html=1;rounded=0;strokeColor=#182E3E;align=center;verticalAlign=middle;fontFamily=Helvetica;fontSize=11;fontColor=default;labelBackgroundColor=default;" parent="1" source="RqFdxI-LGkWdY0zvhsHZ-67" target="RqFdxI-LGkWdY0zvhsHZ-54" edge="1">
          <mxGeometry relative="1" as="geometry">
            <mxPoint x="259" y="1038.58" as="sourcePoint" />
            <mxPoint x="419" y="1038.58" as="targetPoint" />
          </mxGeometry>
        </mxCell>
        <mxCell id="RqFdxI-LGkWdY0zvhsHZ-70" value="Em noites" style="shape=note;size=20;whiteSpace=wrap;html=1;strokeColor=#432D57;fontFamily=Helvetica;fontSize=11;labelBackgroundColor=none;fillColor=#76608a;fontColor=#ffffff;fontStyle=0" parent="1" vertex="1">
          <mxGeometry x="259" y="928" width="100" height="41" as="geometry" />
        </mxCell>
        <mxCell id="RqFdxI-LGkWdY0zvhsHZ-71" value="" style="endArrow=none;html=1;rounded=0;strokeColor=#182E3E;align=center;verticalAlign=middle;fontFamily=Helvetica;fontSize=11;fontColor=default;labelBackgroundColor=default;" parent="1" source="RqFdxI-LGkWdY0zvhsHZ-70" target="RqFdxI-LGkWdY0zvhsHZ-67" edge="1">
          <mxGeometry relative="1" as="geometry">
            <mxPoint x="345" y="1062" as="sourcePoint" />
            <mxPoint x="505" y="1062" as="targetPoint" />
          </mxGeometry>
        </mxCell>
      </root>
    </mxGraphModel>
  </diagram>
  <diagram id="U3nIpxdluMA7R1Hdsqrn" name="Page-2">
    <mxGraphModel dx="1050" dy="557" grid="0" gridSize="10" guides="1" tooltips="1" connect="1" arrows="1" fold="1" page="1" pageScale="1" pageWidth="827" pageHeight="1169" background="#FF33FF" math="0" shadow="0">
      <root>
        <mxCell id="0" />
        <mxCell id="1" parent="0" />
        <mxCell id="YkGxb1L94IrAl0cpPuN2-2" value="Aula2addons" style="text;strokeColor=none;fillColor=none;html=1;fontSize=21;fontStyle=1;verticalAlign=middle;align=center;fontFamily=Helvetica;fontColor=#FFFFFF;labelBackgroundColor=none;" parent="1" vertex="1">
          <mxGeometry x="331" y="20" width="165" height="55" as="geometry" />
        </mxCell>
        <mxCell id="YkGxb1L94IrAl0cpPuN2-3" value="VÃ´o" style="whiteSpace=wrap;html=1;align=center;strokeColor=#EEEEEE;verticalAlign=middle;fontFamily=Helvetica;fontSize=11;fontColor=#FFFFFF;labelBackgroundColor=none;fillColor=#56517E;" parent="1" vertex="1">
          <mxGeometry x="511" y="152" width="100" height="40" as="geometry" />
        </mxCell>
        <mxCell id="YkGxb1L94IrAl0cpPuN2-4" value="" style="edgeStyle=none;shape=connector;rounded=0;orthogonalLoop=1;jettySize=auto;html=1;strokeColor=#182E3E;align=center;verticalAlign=middle;fontFamily=Helvetica;fontSize=11;fontColor=default;labelBackgroundColor=none;endArrow=none;endFill=0;" parent="1" source="YkGxb1L94IrAl0cpPuN2-5" target="YkGxb1L94IrAl0cpPuN2-6" edge="1">
          <mxGeometry relative="1" as="geometry" />
        </mxCell>
        <mxCell id="YkGxb1L94IrAl0cpPuN2-5" value="MatrÃ­cula" style="ellipse;whiteSpace=wrap;html=1;align=center;strokeColor=#EEEEEE;verticalAlign=middle;fontFamily=Helvetica;fontSize=11;fontColor=#FFFFFF;labelBackgroundColor=none;fillColor=#56517E;" parent="1" vertex="1">
          <mxGeometry x="286" y="87" width="100" height="40" as="geometry" />
        </mxCell>
        <mxCell id="YkGxb1L94IrAl0cpPuN2-6" value="AviÃ£o" style="whiteSpace=wrap;html=1;align=center;strokeColor=#EEEEEE;verticalAlign=middle;fontFamily=Helvetica;fontSize=11;fontColor=#FFFFFF;labelBackgroundColor=none;fillColor=#56517E;" parent="1" vertex="1">
          <mxGeometry x="219.5" y="152" width="100" height="40" as="geometry" />
        </mxCell>
        <mxCell id="YkGxb1L94IrAl0cpPuN2-7" value="" style="edgeStyle=none;shape=connector;rounded=0;orthogonalLoop=1;jettySize=auto;html=1;strokeColor=#182E3E;align=center;verticalAlign=middle;fontFamily=Helvetica;fontSize=11;fontColor=default;labelBackgroundColor=none;endArrow=none;endFill=0;startArrow=ERone;startFill=0;" parent="1" source="YkGxb1L94IrAl0cpPuN2-6" target="YkGxb1L94IrAl0cpPuN2-10" edge="1">
          <mxGeometry relative="1" as="geometry" />
        </mxCell>
        <mxCell id="YkGxb1L94IrAl0cpPuN2-8" value="" style="edgeLabel;html=1;align=center;verticalAlign=middle;resizable=0;points=[];strokeColor=#EEEEEE;fontColor=#FFFFFF;fillColor=#56517E;" parent="YkGxb1L94IrAl0cpPuN2-7" vertex="1" connectable="0">
          <mxGeometry x="0.8137" relative="1" as="geometry">
            <mxPoint as="offset" />
          </mxGeometry>
        </mxCell>
        <mxCell id="YkGxb1L94IrAl0cpPuN2-9" value="" style="edgeStyle=none;shape=connector;rounded=0;orthogonalLoop=1;jettySize=auto;html=1;strokeColor=#182E3E;align=center;verticalAlign=middle;fontFamily=Helvetica;fontSize=11;fontColor=default;labelBackgroundColor=none;endArrow=ERmany;endFill=0;startArrow=none;startFill=0;" parent="1" source="YkGxb1L94IrAl0cpPuN2-10" target="YkGxb1L94IrAl0cpPuN2-3" edge="1">
          <mxGeometry relative="1" as="geometry" />
        </mxCell>
        <mxCell id="YkGxb1L94IrAl0cpPuN2-10" value="Performa" style="shape=rhombus;perimeter=rhombusPerimeter;whiteSpace=wrap;html=1;align=center;strokeColor=#EEEEEE;verticalAlign=middle;fontFamily=Helvetica;fontSize=11;fontColor=#FFFFFF;labelBackgroundColor=none;fillColor=#56517E;" parent="1" vertex="1">
          <mxGeometry x="361" y="142" width="120" height="60" as="geometry" />
        </mxCell>
        <mxCell id="YkGxb1L94IrAl0cpPuN2-11" value="" style="edgeStyle=none;shape=connector;rounded=0;orthogonalLoop=1;jettySize=auto;html=1;strokeColor=#182E3E;align=center;verticalAlign=middle;fontFamily=Helvetica;fontSize=11;fontColor=default;labelBackgroundColor=none;endArrow=none;endFill=0;" parent="1" source="YkGxb1L94IrAl0cpPuN2-12" target="YkGxb1L94IrAl0cpPuN2-6" edge="1">
          <mxGeometry relative="1" as="geometry" />
        </mxCell>
        <mxCell id="YkGxb1L94IrAl0cpPuN2-12" value="Marca" style="ellipse;whiteSpace=wrap;html=1;align=center;strokeColor=#EEEEEE;verticalAlign=middle;fontFamily=Helvetica;fontSize=11;fontColor=#FFFFFF;labelBackgroundColor=none;fillColor=#56517E;" parent="1" vertex="1">
          <mxGeometry x="116" y="87" width="100" height="40" as="geometry" />
        </mxCell>
        <mxCell id="YkGxb1L94IrAl0cpPuN2-13" value="" style="edgeStyle=none;shape=connector;rounded=0;orthogonalLoop=1;jettySize=auto;html=1;strokeColor=#182E3E;align=center;verticalAlign=middle;fontFamily=Helvetica;fontSize=11;fontColor=default;labelBackgroundColor=none;endArrow=none;endFill=0;" parent="1" source="YkGxb1L94IrAl0cpPuN2-14" target="YkGxb1L94IrAl0cpPuN2-6" edge="1">
          <mxGeometry relative="1" as="geometry" />
        </mxCell>
        <mxCell id="YkGxb1L94IrAl0cpPuN2-14" value="Autonomia (em horas)" style="ellipse;whiteSpace=wrap;html=1;align=center;strokeColor=#EEEEEE;verticalAlign=middle;fontFamily=Helvetica;fontSize=11;fontColor=#FFFFFF;labelBackgroundColor=none;fillColor=#56517E;" parent="1" vertex="1">
          <mxGeometry x="106" y="152" width="100" height="40" as="geometry" />
        </mxCell>
        <mxCell id="YkGxb1L94IrAl0cpPuN2-15" value="" style="edgeStyle=none;shape=connector;rounded=0;orthogonalLoop=1;jettySize=auto;html=1;strokeColor=#182E3E;align=center;verticalAlign=middle;fontFamily=Helvetica;fontSize=11;fontColor=default;labelBackgroundColor=none;endArrow=none;endFill=0;" parent="1" source="YkGxb1L94IrAl0cpPuN2-16" target="YkGxb1L94IrAl0cpPuN2-3" edge="1">
          <mxGeometry relative="1" as="geometry">
            <mxPoint x="636" y="172" as="sourcePoint" />
          </mxGeometry>
        </mxCell>
        <mxCell id="YkGxb1L94IrAl0cpPuN2-16" value="Hora" style="ellipse;whiteSpace=wrap;html=1;align=center;strokeColor=#EEEEEE;verticalAlign=middle;fontFamily=Helvetica;fontSize=11;fontColor=#FFFFFF;labelBackgroundColor=none;fillColor=#56517E;" parent="1" vertex="1">
          <mxGeometry x="621" y="152" width="100" height="40" as="geometry" />
        </mxCell>
        <mxCell id="YkGxb1L94IrAl0cpPuN2-17" value="" style="edgeStyle=none;shape=connector;rounded=0;orthogonalLoop=1;jettySize=auto;html=1;strokeColor=#182E3E;align=center;verticalAlign=middle;fontFamily=Helvetica;fontSize=11;fontColor=default;labelBackgroundColor=none;endArrow=none;endFill=0;" parent="1" source="YkGxb1L94IrAl0cpPuN2-18" target="YkGxb1L94IrAl0cpPuN2-3" edge="1">
          <mxGeometry relative="1" as="geometry" />
        </mxCell>
        <mxCell id="YkGxb1L94IrAl0cpPuN2-18" value="NÃºmero de referÃªncia" style="ellipse;whiteSpace=wrap;html=1;align=center;strokeColor=#EEEEEE;verticalAlign=middle;fontFamily=Helvetica;fontSize=11;fontColor=#FFFFFF;labelBackgroundColor=none;fillColor=#56517E;" parent="1" vertex="1">
          <mxGeometry x="576" y="87" width="100" height="40" as="geometry" />
        </mxCell>
        <mxCell id="YkGxb1L94IrAl0cpPuN2-19" value="" style="edgeStyle=none;shape=connector;rounded=0;orthogonalLoop=1;jettySize=auto;html=1;strokeColor=#182E3E;align=center;verticalAlign=middle;fontFamily=Helvetica;fontSize=11;fontColor=default;labelBackgroundColor=none;endArrow=none;endFill=0;" parent="1" source="YkGxb1L94IrAl0cpPuN2-20" target="YkGxb1L94IrAl0cpPuN2-3" edge="1">
          <mxGeometry relative="1" as="geometry" />
        </mxCell>
        <mxCell id="YkGxb1L94IrAl0cpPuN2-20" value="Data" style="ellipse;whiteSpace=wrap;html=1;align=center;strokeColor=#EEEEEE;verticalAlign=middle;fontFamily=Helvetica;fontSize=11;fontColor=#FFFFFF;labelBackgroundColor=none;fillColor=#56517E;" parent="1" vertex="1">
          <mxGeometry x="446" y="87" width="100" height="40" as="geometry" />
        </mxCell>
        <mxCell id="YkGxb1L94IrAl0cpPuN2-21" style="edgeStyle=none;shape=connector;rounded=0;orthogonalLoop=1;jettySize=auto;html=1;exitX=1;exitY=1;exitDx=0;exitDy=0;strokeColor=#182E3E;align=center;verticalAlign=middle;fontFamily=Helvetica;fontSize=11;fontColor=default;labelBackgroundColor=none;endArrow=none;endFill=0;" parent="1" source="YkGxb1L94IrAl0cpPuN2-12" target="YkGxb1L94IrAl0cpPuN2-12" edge="1">
          <mxGeometry relative="1" as="geometry" />
        </mxCell>
        <mxCell id="YkGxb1L94IrAl0cpPuN2-22" value="&lt;font color=&quot;#000000&quot;&gt;Aviao&lt;/font&gt;" style="shape=table;startSize=30;container=1;collapsible=1;childLayout=tableLayout;fixedRows=1;rowLines=0;fontStyle=1;align=center;resizeLast=1;html=1;fontFamily=Helvetica;fontSize=12;labelBackgroundColor=none;strokeColor=#432D57;fillColor=#76608a;fontColor=#ffffff;" parent="1" vertex="1">
          <mxGeometry x="139.5" y="255" width="179.5" height="120" as="geometry">
            <mxRectangle x="139.5" y="255" width="62" height="30" as="alternateBounds" />
          </mxGeometry>
        </mxCell>
        <mxCell id="YkGxb1L94IrAl0cpPuN2-23" value="" style="shape=tableRow;horizontal=0;startSize=0;swimlaneHead=0;swimlaneBody=0;fillColor=#76608a;collapsible=0;dropTarget=0;points=[[0,0.5],[1,0.5]];portConstraint=eastwest;top=0;left=0;right=0;bottom=1;fontFamily=Helvetica;fontSize=12;labelBackgroundColor=none;strokeColor=#432D57;fontColor=#ffffff;" parent="YkGxb1L94IrAl0cpPuN2-22" vertex="1">
          <mxGeometry y="30" width="179.5" height="30" as="geometry" />
        </mxCell>
        <mxCell id="YkGxb1L94IrAl0cpPuN2-24" value="PK" style="shape=partialRectangle;connectable=0;fillColor=#76608a;top=0;left=0;bottom=0;right=0;fontStyle=1;overflow=hidden;whiteSpace=wrap;html=1;fontFamily=Helvetica;fontSize=12;labelBackgroundColor=none;strokeColor=#432D57;fontColor=#ffffff;" parent="YkGxb1L94IrAl0cpPuN2-23" vertex="1">
          <mxGeometry width="30" height="30" as="geometry">
            <mxRectangle width="30" height="30" as="alternateBounds" />
          </mxGeometry>
        </mxCell>
        <mxCell id="YkGxb1L94IrAl0cpPuN2-25" value="matricula" style="shape=partialRectangle;connectable=0;fillColor=#76608a;top=0;left=0;bottom=0;right=0;align=left;spacingLeft=6;fontStyle=5;overflow=hidden;whiteSpace=wrap;html=1;fontFamily=Helvetica;fontSize=12;labelBackgroundColor=none;strokeColor=#432D57;fontColor=#ffffff;" parent="YkGxb1L94IrAl0cpPuN2-23" vertex="1">
          <mxGeometry x="30" width="149.5" height="30" as="geometry">
            <mxRectangle width="149.5" height="30" as="alternateBounds" />
          </mxGeometry>
        </mxCell>
        <mxCell id="YkGxb1L94IrAl0cpPuN2-26" value="" style="shape=tableRow;horizontal=0;startSize=0;swimlaneHead=0;swimlaneBody=0;fillColor=#76608a;collapsible=0;dropTarget=0;points=[[0,0.5],[1,0.5]];portConstraint=eastwest;top=0;left=0;right=0;bottom=0;fontFamily=Helvetica;fontSize=12;labelBackgroundColor=none;strokeColor=#432D57;fontColor=#ffffff;" parent="YkGxb1L94IrAl0cpPuN2-22" vertex="1">
          <mxGeometry y="60" width="179.5" height="30" as="geometry" />
        </mxCell>
        <mxCell id="YkGxb1L94IrAl0cpPuN2-27" value="" style="shape=partialRectangle;connectable=0;fillColor=#76608a;top=0;left=0;bottom=0;right=0;editable=1;overflow=hidden;whiteSpace=wrap;html=1;fontFamily=Helvetica;fontSize=12;labelBackgroundColor=none;strokeColor=#432D57;fontColor=#ffffff;" parent="YkGxb1L94IrAl0cpPuN2-26" vertex="1">
          <mxGeometry width="30" height="30" as="geometry">
            <mxRectangle width="30" height="30" as="alternateBounds" />
          </mxGeometry>
        </mxCell>
        <mxCell id="YkGxb1L94IrAl0cpPuN2-28" value="autonomia (em horas)" style="shape=partialRectangle;connectable=0;fillColor=#76608a;top=0;left=0;bottom=0;right=0;align=left;spacingLeft=6;overflow=hidden;whiteSpace=wrap;html=1;fontFamily=Helvetica;fontSize=12;labelBackgroundColor=none;strokeColor=#432D57;fontColor=#ffffff;" parent="YkGxb1L94IrAl0cpPuN2-26" vertex="1">
          <mxGeometry x="30" width="149.5" height="30" as="geometry">
            <mxRectangle width="149.5" height="30" as="alternateBounds" />
          </mxGeometry>
        </mxCell>
        <mxCell id="YkGxb1L94IrAl0cpPuN2-29" value="" style="shape=tableRow;horizontal=0;startSize=0;swimlaneHead=0;swimlaneBody=0;fillColor=#76608a;collapsible=0;dropTarget=0;points=[[0,0.5],[1,0.5]];portConstraint=eastwest;top=0;left=0;right=0;bottom=0;fontFamily=Helvetica;fontSize=12;labelBackgroundColor=none;strokeColor=#432D57;fontColor=#ffffff;" parent="YkGxb1L94IrAl0cpPuN2-22" vertex="1">
          <mxGeometry y="90" width="179.5" height="30" as="geometry" />
        </mxCell>
        <mxCell id="YkGxb1L94IrAl0cpPuN2-30" value="" style="shape=partialRectangle;connectable=0;fillColor=#76608a;top=0;left=0;bottom=0;right=0;editable=1;overflow=hidden;whiteSpace=wrap;html=1;fontFamily=Helvetica;fontSize=12;labelBackgroundColor=none;strokeColor=#432D57;fontColor=#ffffff;" parent="YkGxb1L94IrAl0cpPuN2-29" vertex="1">
          <mxGeometry width="30" height="30" as="geometry">
            <mxRectangle width="30" height="30" as="alternateBounds" />
          </mxGeometry>
        </mxCell>
        <mxCell id="YkGxb1L94IrAl0cpPuN2-31" value="marca" style="shape=partialRectangle;connectable=0;fillColor=#76608a;top=0;left=0;bottom=0;right=0;align=left;spacingLeft=6;overflow=hidden;whiteSpace=wrap;html=1;fontFamily=Helvetica;fontSize=12;labelBackgroundColor=none;strokeColor=#432D57;fontColor=#ffffff;" parent="YkGxb1L94IrAl0cpPuN2-29" vertex="1">
          <mxGeometry x="30" width="149.5" height="30" as="geometry">
            <mxRectangle width="149.5" height="30" as="alternateBounds" />
          </mxGeometry>
        </mxCell>
        <mxCell id="YkGxb1L94IrAl0cpPuN2-35" value="&lt;font color=&quot;#000000&quot;&gt;Voo&lt;/font&gt;" style="shape=table;startSize=30;container=1;collapsible=1;childLayout=tableLayout;fixedRows=1;rowLines=0;fontStyle=1;align=center;resizeLast=1;html=1;fontFamily=Helvetica;fontSize=12;labelBackgroundColor=none;strokeColor=#432D57;fillColor=#76608a;fontColor=#ffffff;" parent="1" vertex="1">
          <mxGeometry x="511" y="256" width="180" height="150" as="geometry">
            <mxRectangle x="511" y="256" width="56" height="30" as="alternateBounds" />
          </mxGeometry>
        </mxCell>
        <mxCell id="YkGxb1L94IrAl0cpPuN2-36" value="" style="shape=tableRow;horizontal=0;startSize=0;swimlaneHead=0;swimlaneBody=0;fillColor=#76608a;collapsible=0;dropTarget=0;points=[[0,0.5],[1,0.5]];portConstraint=eastwest;top=0;left=0;right=0;bottom=1;fontFamily=Helvetica;fontSize=12;labelBackgroundColor=none;strokeColor=#432D57;fontColor=#ffffff;" parent="YkGxb1L94IrAl0cpPuN2-35" vertex="1">
          <mxGeometry y="30" width="180" height="30" as="geometry" />
        </mxCell>
        <mxCell id="YkGxb1L94IrAl0cpPuN2-37" value="PK" style="shape=partialRectangle;connectable=0;fillColor=#76608a;top=0;left=0;bottom=0;right=0;fontStyle=1;overflow=hidden;whiteSpace=wrap;html=1;fontFamily=Helvetica;fontSize=12;labelBackgroundColor=none;strokeColor=#432D57;fontColor=#ffffff;" parent="YkGxb1L94IrAl0cpPuN2-36" vertex="1">
          <mxGeometry width="30" height="30" as="geometry">
            <mxRectangle width="30" height="30" as="alternateBounds" />
          </mxGeometry>
        </mxCell>
        <mxCell id="YkGxb1L94IrAl0cpPuN2-38" value="numeroReferencia" style="shape=partialRectangle;connectable=0;fillColor=#76608a;top=0;left=0;bottom=0;right=0;align=left;spacingLeft=6;fontStyle=5;overflow=hidden;whiteSpace=wrap;html=1;fontFamily=Helvetica;fontSize=12;labelBackgroundColor=none;strokeColor=#432D57;fontColor=#ffffff;" parent="YkGxb1L94IrAl0cpPuN2-36" vertex="1">
          <mxGeometry x="30" width="150" height="30" as="geometry">
            <mxRectangle width="150" height="30" as="alternateBounds" />
          </mxGeometry>
        </mxCell>
        <mxCell id="YkGxb1L94IrAl0cpPuN2-39" value="" style="shape=tableRow;horizontal=0;startSize=0;swimlaneHead=0;swimlaneBody=0;fillColor=#76608a;collapsible=0;dropTarget=0;points=[[0,0.5],[1,0.5]];portConstraint=eastwest;top=0;left=0;right=0;bottom=0;fontFamily=Helvetica;fontSize=12;labelBackgroundColor=none;strokeColor=#432D57;fontColor=#ffffff;" parent="YkGxb1L94IrAl0cpPuN2-35" vertex="1">
          <mxGeometry y="60" width="180" height="30" as="geometry" />
        </mxCell>
        <mxCell id="YkGxb1L94IrAl0cpPuN2-40" value="" style="shape=partialRectangle;connectable=0;fillColor=#76608a;top=0;left=0;bottom=0;right=0;editable=1;overflow=hidden;whiteSpace=wrap;html=1;fontFamily=Helvetica;fontSize=12;labelBackgroundColor=none;strokeColor=#432D57;fontColor=#ffffff;" parent="YkGxb1L94IrAl0cpPuN2-39" vertex="1">
          <mxGeometry width="30" height="30" as="geometry">
            <mxRectangle width="30" height="30" as="alternateBounds" />
          </mxGeometry>
        </mxCell>
        <mxCell id="YkGxb1L94IrAl0cpPuN2-41" value="data" style="shape=partialRectangle;connectable=0;fillColor=#76608a;top=0;left=0;bottom=0;right=0;align=left;spacingLeft=6;overflow=hidden;whiteSpace=wrap;html=1;fontFamily=Helvetica;fontSize=12;labelBackgroundColor=none;strokeColor=#432D57;fontColor=#ffffff;" parent="YkGxb1L94IrAl0cpPuN2-39" vertex="1">
          <mxGeometry x="30" width="150" height="30" as="geometry">
            <mxRectangle width="150" height="30" as="alternateBounds" />
          </mxGeometry>
        </mxCell>
        <mxCell id="YkGxb1L94IrAl0cpPuN2-42" value="" style="shape=tableRow;horizontal=0;startSize=0;swimlaneHead=0;swimlaneBody=0;fillColor=#76608a;collapsible=0;dropTarget=0;points=[[0,0.5],[1,0.5]];portConstraint=eastwest;top=0;left=0;right=0;bottom=0;fontFamily=Helvetica;fontSize=12;labelBackgroundColor=none;strokeColor=#432D57;fontColor=#ffffff;" parent="YkGxb1L94IrAl0cpPuN2-35" vertex="1">
          <mxGeometry y="90" width="180" height="30" as="geometry" />
        </mxCell>
        <mxCell id="YkGxb1L94IrAl0cpPuN2-43" value="" style="shape=partialRectangle;connectable=0;fillColor=#76608a;top=0;left=0;bottom=0;right=0;editable=1;overflow=hidden;whiteSpace=wrap;html=1;fontFamily=Helvetica;fontSize=12;labelBackgroundColor=none;strokeColor=#432D57;fontColor=#ffffff;" parent="YkGxb1L94IrAl0cpPuN2-42" vertex="1">
          <mxGeometry width="30" height="30" as="geometry">
            <mxRectangle width="30" height="30" as="alternateBounds" />
          </mxGeometry>
        </mxCell>
        <mxCell id="YkGxb1L94IrAl0cpPuN2-44" value="hora" style="shape=partialRectangle;connectable=0;fillColor=#76608a;top=0;left=0;bottom=0;right=0;align=left;spacingLeft=6;overflow=hidden;whiteSpace=wrap;html=1;fontFamily=Helvetica;fontSize=12;labelBackgroundColor=none;strokeColor=#432D57;fontColor=#ffffff;" parent="YkGxb1L94IrAl0cpPuN2-42" vertex="1">
          <mxGeometry x="30" width="150" height="30" as="geometry">
            <mxRectangle width="150" height="30" as="alternateBounds" />
          </mxGeometry>
        </mxCell>
        <mxCell id="YkGxb1L94IrAl0cpPuN2-45" value="" style="shape=tableRow;horizontal=0;startSize=0;swimlaneHead=0;swimlaneBody=0;fillColor=#76608a;collapsible=0;dropTarget=0;points=[[0,0.5],[1,0.5]];portConstraint=eastwest;top=0;left=0;right=0;bottom=0;fontFamily=Helvetica;fontSize=12;labelBackgroundColor=none;strokeColor=#432D57;fontColor=#ffffff;" parent="YkGxb1L94IrAl0cpPuN2-35" vertex="1">
          <mxGeometry y="120" width="180" height="30" as="geometry" />
        </mxCell>
        <mxCell id="YkGxb1L94IrAl0cpPuN2-46" value="FK" style="shape=partialRectangle;connectable=0;fillColor=#76608a;top=0;left=0;bottom=0;right=0;editable=1;overflow=hidden;whiteSpace=wrap;html=1;fontFamily=Helvetica;fontSize=12;labelBackgroundColor=none;strokeColor=#432D57;fontColor=#ffffff;" parent="YkGxb1L94IrAl0cpPuN2-45" vertex="1">
          <mxGeometry width="30" height="30" as="geometry">
            <mxRectangle width="30" height="30" as="alternateBounds" />
          </mxGeometry>
        </mxCell>
        <mxCell id="YkGxb1L94IrAl0cpPuN2-47" value="matriculaAviao" style="shape=partialRectangle;connectable=0;fillColor=#76608a;top=0;left=0;bottom=0;right=0;align=left;spacingLeft=6;overflow=hidden;whiteSpace=wrap;html=1;fontFamily=Helvetica;fontSize=12;labelBackgroundColor=none;strokeColor=#432D57;fontColor=#ffffff;" parent="YkGxb1L94IrAl0cpPuN2-45" vertex="1">
          <mxGeometry x="30" width="150" height="30" as="geometry">
            <mxRectangle width="150" height="30" as="alternateBounds" />
          </mxGeometry>
        </mxCell>
        <mxCell id="YkGxb1L94IrAl0cpPuN2-51" style="edgeStyle=orthogonalEdgeStyle;shape=connector;rounded=0;orthogonalLoop=1;jettySize=auto;html=1;strokeColor=#432D57;align=center;verticalAlign=middle;fontFamily=Helvetica;fontSize=11;fontColor=default;labelBackgroundColor=none;endArrow=ERmandOne;exitX=0;exitY=0.5;exitDx=0;exitDy=0;entryX=1;entryY=0.5;entryDx=0;entryDy=0;endFill=0;startArrow=ERzeroToMany;startFill=0;fillColor=#76608a;" parent="1" source="YkGxb1L94IrAl0cpPuN2-45" target="YkGxb1L94IrAl0cpPuN2-23" edge="1">
          <mxGeometry relative="1" as="geometry">
            <mxPoint x="456" y="510" as="targetPoint" />
            <mxPoint x="592" y="466" as="sourcePoint" />
          </mxGeometry>
        </mxCell>
        <mxCell id="rxXc-QOBDXRXFZevf7WP-1" value="" style="rounded=0;orthogonalLoop=1;jettySize=auto;html=1;endArrow=none;endFill=0;labelBackgroundColor=none;strokeColor=#182E3E;fontColor=default;startArrow=ERone;startFill=0;" parent="1" source="rxXc-QOBDXRXFZevf7WP-2" target="rxXc-QOBDXRXFZevf7WP-26" edge="1">
          <mxGeometry relative="1" as="geometry">
            <mxPoint x="327.25" y="561.5" as="targetPoint" />
          </mxGeometry>
        </mxCell>
        <mxCell id="rxXc-QOBDXRXFZevf7WP-2" value="MÃ©dico" style="whiteSpace=wrap;html=1;align=center;labelBackgroundColor=none;fillColor=#56517E;strokeColor=#EEEEEE;fontColor=#FFFFFF;" parent="1" vertex="1">
          <mxGeometry x="31" y="541.5" width="100" height="40" as="geometry" />
        </mxCell>
        <mxCell id="rxXc-QOBDXRXFZevf7WP-3" value="" style="rounded=0;orthogonalLoop=1;jettySize=auto;html=1;endArrow=none;endFill=0;labelBackgroundColor=none;strokeColor=#182E3E;fontColor=default;startArrow=ERmany;startFill=0;" parent="1" source="rxXc-QOBDXRXFZevf7WP-25" target="rxXc-QOBDXRXFZevf7WP-29" edge="1">
          <mxGeometry relative="1" as="geometry">
            <mxPoint x="447.25" y="561.5" as="sourcePoint" />
          </mxGeometry>
        </mxCell>
        <mxCell id="rxXc-QOBDXRXFZevf7WP-4" value="" style="edgeStyle=none;shape=connector;rounded=0;orthogonalLoop=1;jettySize=auto;html=1;strokeColor=#182E3E;align=center;verticalAlign=middle;fontFamily=Helvetica;fontSize=11;fontColor=default;labelBackgroundColor=none;endArrow=none;endFill=0;" parent="1" source="rxXc-QOBDXRXFZevf7WP-25" target="rxXc-QOBDXRXFZevf7WP-8" edge="1">
          <mxGeometry relative="1" as="geometry">
            <mxPoint x="419.55880464267034" y="575.3455976786647" as="sourcePoint" />
          </mxGeometry>
        </mxCell>
        <mxCell id="rxXc-QOBDXRXFZevf7WP-5" value="Paciente" style="whiteSpace=wrap;html=1;align=center;labelBackgroundColor=none;fillColor=#56517E;strokeColor=#EEEEEE;fontColor=#FFFFFF;" parent="1" vertex="1">
          <mxGeometry x="667" y="541.5" width="100" height="40" as="geometry" />
        </mxCell>
        <mxCell id="rxXc-QOBDXRXFZevf7WP-6" value="" style="edgeStyle=none;shape=connector;rounded=0;orthogonalLoop=1;jettySize=auto;html=1;strokeColor=#182E3E;align=center;verticalAlign=middle;fontFamily=Helvetica;fontSize=11;fontColor=default;labelBackgroundColor=none;endArrow=none;endFill=0;" parent="1" source="rxXc-QOBDXRXFZevf7WP-7" target="rxXc-QOBDXRXFZevf7WP-25" edge="1">
          <mxGeometry relative="1" as="geometry">
            <mxPoint x="364.6167711598746" y="542.8166144200627" as="targetPoint" />
          </mxGeometry>
        </mxCell>
        <mxCell id="rxXc-QOBDXRXFZevf7WP-7" value="Hora" style="ellipse;whiteSpace=wrap;html=1;align=center;labelBackgroundColor=none;fillColor=#56517E;strokeColor=#EEEEEE;fontColor=#FFFFFF;" parent="1" vertex="1">
          <mxGeometry x="247" y="467" width="100" height="40" as="geometry" />
        </mxCell>
        <mxCell id="rxXc-QOBDXRXFZevf7WP-8" value="Data" style="ellipse;whiteSpace=wrap;html=1;align=center;labelBackgroundColor=none;fillColor=#56517E;strokeColor=#EEEEEE;fontColor=#FFFFFF;" parent="1" vertex="1">
          <mxGeometry x="467" y="597" width="100" height="40" as="geometry" />
        </mxCell>
        <mxCell id="rxXc-QOBDXRXFZevf7WP-9" value="" style="edgeStyle=none;shape=connector;rounded=0;orthogonalLoop=1;jettySize=auto;html=1;strokeColor=#182E3E;align=center;verticalAlign=middle;fontFamily=Helvetica;fontSize=11;fontColor=default;labelBackgroundColor=none;endArrow=none;endFill=0;" parent="1" source="rxXc-QOBDXRXFZevf7WP-10" target="rxXc-QOBDXRXFZevf7WP-25" edge="1">
          <mxGeometry relative="1" as="geometry">
            <mxPoint x="403.69336175395847" y="539.7216808769792" as="targetPoint" />
          </mxGeometry>
        </mxCell>
        <mxCell id="rxXc-QOBDXRXFZevf7WP-10" value="Valor" style="ellipse;whiteSpace=wrap;html=1;align=center;labelBackgroundColor=none;fillColor=#56517E;strokeColor=#EEEEEE;fontColor=#FFFFFF;" parent="1" vertex="1">
          <mxGeometry x="393.5" y="467" width="100" height="40" as="geometry" />
        </mxCell>
        <mxCell id="rxXc-QOBDXRXFZevf7WP-11" value="" style="rounded=0;orthogonalLoop=1;jettySize=auto;html=1;strokeColor=#182E3E;endArrow=ERmany;endFill=0;labelBackgroundColor=none;fontColor=default;" parent="1" source="rxXc-QOBDXRXFZevf7WP-13" target="rxXc-QOBDXRXFZevf7WP-2" edge="1">
          <mxGeometry relative="1" as="geometry" />
        </mxCell>
        <mxCell id="rxXc-QOBDXRXFZevf7WP-12" value="" style="edgeStyle=none;shape=connector;rounded=0;orthogonalLoop=1;jettySize=auto;html=1;strokeColor=#182E3E;align=center;verticalAlign=middle;fontFamily=Helvetica;fontSize=11;fontColor=default;labelBackgroundColor=default;endArrow=none;endFill=0;" parent="1" source="rxXc-QOBDXRXFZevf7WP-13" target="rxXc-QOBDXRXFZevf7WP-16" edge="1">
          <mxGeometry relative="1" as="geometry" />
        </mxCell>
        <mxCell id="rxXc-QOBDXRXFZevf7WP-13" value="Tem" style="shape=rhombus;perimeter=rhombusPerimeter;whiteSpace=wrap;html=1;align=center;strokeColor=#EEEEEE;fontColor=#FFFFFF;fillColor=#56517E;labelBackgroundColor=none;" parent="1" vertex="1">
          <mxGeometry x="21" y="627" width="120" height="60" as="geometry" />
        </mxCell>
        <mxCell id="rxXc-QOBDXRXFZevf7WP-14" value="" style="edgeStyle=none;shape=connector;rounded=0;orthogonalLoop=1;jettySize=auto;html=1;strokeColor=#182E3E;align=center;verticalAlign=middle;fontFamily=Helvetica;fontSize=11;fontColor=default;labelBackgroundColor=default;endArrow=none;endFill=0;startArrow=ERone;startFill=0;" parent="1" source="rxXc-QOBDXRXFZevf7WP-16" target="rxXc-QOBDXRXFZevf7WP-13" edge="1">
          <mxGeometry relative="1" as="geometry" />
        </mxCell>
        <mxCell id="rxXc-QOBDXRXFZevf7WP-15" value="" style="edgeStyle=none;shape=connector;rounded=0;orthogonalLoop=1;jettySize=auto;html=1;strokeColor=#182E3E;align=center;verticalAlign=middle;fontFamily=Helvetica;fontSize=11;fontColor=default;labelBackgroundColor=default;endArrow=ERone;endFill=0;" parent="1" source="rxXc-QOBDXRXFZevf7WP-27" target="rxXc-QOBDXRXFZevf7WP-16" edge="1">
          <mxGeometry relative="1" as="geometry">
            <mxPoint x="365.75" y="580.5" as="sourcePoint" />
          </mxGeometry>
        </mxCell>
        <mxCell id="rxXc-QOBDXRXFZevf7WP-16" value="Especialidade" style="whiteSpace=wrap;html=1;align=center;labelBackgroundColor=none;fillColor=#56517E;strokeColor=#EEEEEE;fontColor=#FFFFFF;" parent="1" vertex="1">
          <mxGeometry x="178" y="637" width="100" height="40" as="geometry" />
        </mxCell>
        <mxCell id="rxXc-QOBDXRXFZevf7WP-17" value="Nome" style="ellipse;whiteSpace=wrap;html=1;align=center;strokeColor=#EEEEEE;fontColor=#FFFFFF;fillColor=#56517E;" parent="1" vertex="1">
          <mxGeometry x="31" y="465" width="100" height="38.5" as="geometry" />
        </mxCell>
        <mxCell id="rxXc-QOBDXRXFZevf7WP-18" value="" style="endArrow=none;html=1;rounded=0;strokeColor=#182E3E;" parent="1" source="rxXc-QOBDXRXFZevf7WP-17" target="rxXc-QOBDXRXFZevf7WP-2" edge="1">
          <mxGeometry relative="1" as="geometry">
            <mxPoint x="263.75" y="469.5" as="sourcePoint" />
            <mxPoint x="423.75" y="469.5" as="targetPoint" />
          </mxGeometry>
        </mxCell>
        <mxCell id="rxXc-QOBDXRXFZevf7WP-19" value="Nome" style="ellipse;whiteSpace=wrap;html=1;align=center;strokeColor=#EEEEEE;fontColor=#FFFFFF;fillColor=#56517E;" parent="1" vertex="1">
          <mxGeometry x="707" y="467" width="100" height="40" as="geometry" />
        </mxCell>
        <mxCell id="rxXc-QOBDXRXFZevf7WP-20" value="" style="endArrow=none;html=1;rounded=0;strokeColor=#182E3E;" parent="1" source="rxXc-QOBDXRXFZevf7WP-5" target="rxXc-QOBDXRXFZevf7WP-19" edge="1">
          <mxGeometry relative="1" as="geometry">
            <mxPoint x="264.75" y="471.5" as="sourcePoint" />
            <mxPoint x="424.75" y="471.5" as="targetPoint" />
          </mxGeometry>
        </mxCell>
        <mxCell id="rxXc-QOBDXRXFZevf7WP-21" value="" style="edgeStyle=none;shape=connector;rounded=0;orthogonalLoop=1;jettySize=auto;html=1;strokeColor=#182E3E;align=center;verticalAlign=middle;fontFamily=Helvetica;fontSize=11;fontColor=default;labelBackgroundColor=default;endArrow=none;endFill=0;" parent="1" source="rxXc-QOBDXRXFZevf7WP-22" target="rxXc-QOBDXRXFZevf7WP-5" edge="1">
          <mxGeometry relative="1" as="geometry" />
        </mxCell>
        <mxCell id="rxXc-QOBDXRXFZevf7WP-22" value="Morada" style="ellipse;whiteSpace=wrap;html=1;align=center;strokeColor=#EEEEEE;fontColor=#FFFFFF;fillColor=#56517E;" parent="1" vertex="1">
          <mxGeometry x="657" y="627" width="100" height="40" as="geometry" />
        </mxCell>
        <mxCell id="rxXc-QOBDXRXFZevf7WP-23" value="" style="rounded=0;orthogonalLoop=1;jettySize=auto;html=1;strokeColor=#182E3E;endArrow=none;endFill=0;" parent="1" source="rxXc-QOBDXRXFZevf7WP-24" target="rxXc-QOBDXRXFZevf7WP-5" edge="1">
          <mxGeometry relative="1" as="geometry" />
        </mxCell>
        <mxCell id="rxXc-QOBDXRXFZevf7WP-24" value="Idade" style="ellipse;whiteSpace=wrap;html=1;align=center;strokeColor=#EEEEEE;fontColor=#FFFFFF;fillColor=#56517E;" parent="1" vertex="1">
          <mxGeometry x="577" y="467" width="100" height="40" as="geometry" />
        </mxCell>
        <mxCell id="rxXc-QOBDXRXFZevf7WP-25" value="Consulta" style="whiteSpace=wrap;html=1;align=center;labelBackgroundColor=none;fillColor=#56517E;strokeColor=#EEEEEE;fontColor=#FFFFFF;" parent="1" vertex="1">
          <mxGeometry x="327" y="541.5" width="100" height="40" as="geometry" />
        </mxCell>
        <mxCell id="rxXc-QOBDXRXFZevf7WP-26" value="Faz" style="shape=rhombus;perimeter=rhombusPerimeter;whiteSpace=wrap;html=1;align=center;strokeColor=#EEEEEE;fontColor=#FFFFFF;fillColor=#56517E;labelBackgroundColor=none;" parent="1" vertex="1">
          <mxGeometry x="168" y="531.5" width="120" height="60" as="geometry" />
        </mxCell>
        <mxCell id="rxXc-QOBDXRXFZevf7WP-27" value="Tem" style="shape=rhombus;perimeter=rhombusPerimeter;whiteSpace=wrap;html=1;align=center;strokeColor=#EEEEEE;fontColor=#FFFFFF;fillColor=#56517E;labelBackgroundColor=none;" parent="1" vertex="1">
          <mxGeometry x="317" y="627" width="120" height="60" as="geometry" />
        </mxCell>
        <mxCell id="rxXc-QOBDXRXFZevf7WP-28" value="" style="rounded=0;orthogonalLoop=1;jettySize=auto;html=1;endArrow=none;endFill=0;labelBackgroundColor=none;strokeColor=#182E3E;fontColor=default;startArrow=ERone;startFill=0;" parent="1" source="rxXc-QOBDXRXFZevf7WP-5" target="rxXc-QOBDXRXFZevf7WP-29" edge="1">
          <mxGeometry relative="1" as="geometry">
            <mxPoint x="553" y="563" as="sourcePoint" />
            <mxPoint x="427" y="566" as="targetPoint" />
          </mxGeometry>
        </mxCell>
        <mxCell id="rxXc-QOBDXRXFZevf7WP-29" value="Vai" style="shape=rhombus;perimeter=rhombusPerimeter;whiteSpace=wrap;html=1;align=center;strokeColor=#EEEEEE;fontColor=#FFFFFF;fillColor=#56517E;labelBackgroundColor=none;" parent="1" vertex="1">
          <mxGeometry x="493.5" y="531.5" width="120" height="60" as="geometry" />
        </mxCell>
        <mxCell id="rxXc-QOBDXRXFZevf7WP-30" value="" style="edgeStyle=none;shape=connector;rounded=0;orthogonalLoop=1;jettySize=auto;html=1;strokeColor=#182E3E;align=center;verticalAlign=middle;fontFamily=Helvetica;fontSize=11;fontColor=default;labelBackgroundColor=default;endArrow=none;endFill=0;startArrow=ERmany;startFill=0;" parent="1" source="rxXc-QOBDXRXFZevf7WP-25" target="rxXc-QOBDXRXFZevf7WP-27" edge="1">
          <mxGeometry relative="1" as="geometry">
            <mxPoint x="434" y="667" as="sourcePoint" />
            <mxPoint x="352" y="700" as="targetPoint" />
          </mxGeometry>
        </mxCell>
        <mxCell id="rxXc-QOBDXRXFZevf7WP-31" value="" style="edgeStyle=none;shape=connector;rounded=0;orthogonalLoop=1;jettySize=auto;html=1;strokeColor=#182E3E;align=center;verticalAlign=middle;fontFamily=Helvetica;fontSize=11;fontColor=default;labelBackgroundColor=default;endArrow=none;endFill=0;startArrow=ERmany;startFill=0;" parent="1" source="rxXc-QOBDXRXFZevf7WP-25" target="rxXc-QOBDXRXFZevf7WP-26" edge="1">
          <mxGeometry relative="1" as="geometry">
            <mxPoint x="315" y="684" as="sourcePoint" />
            <mxPoint x="233" y="717" as="targetPoint" />
          </mxGeometry>
        </mxCell>
        <mxCell id="rxXc-QOBDXRXFZevf7WP-45" value="&lt;font color=&quot;#000000&quot;&gt;Medico&lt;/font&gt;" style="shape=table;startSize=30;container=1;collapsible=1;childLayout=tableLayout;fixedRows=1;rowLines=0;fontStyle=1;align=center;resizeLast=1;html=1;fontFamily=Helvetica;fontSize=12;fontColor=#ffffff;labelBackgroundColor=none;strokeColor=#432D57;fillColor=#76608a;" parent="1" vertex="1">
          <mxGeometry x="48" y="742" width="153" height="120" as="geometry">
            <mxRectangle x="139.5" y="255" width="62" height="30" as="alternateBounds" />
          </mxGeometry>
        </mxCell>
        <mxCell id="rxXc-QOBDXRXFZevf7WP-46" value="" style="shape=tableRow;horizontal=0;startSize=0;swimlaneHead=0;swimlaneBody=0;fillColor=#76608a;collapsible=0;dropTarget=0;points=[[0,0.5],[1,0.5]];portConstraint=eastwest;top=0;left=0;right=0;bottom=1;fontFamily=Helvetica;fontSize=12;fontColor=#ffffff;labelBackgroundColor=none;strokeColor=#432D57;" parent="rxXc-QOBDXRXFZevf7WP-45" vertex="1">
          <mxGeometry y="30" width="153" height="30" as="geometry" />
        </mxCell>
        <mxCell id="rxXc-QOBDXRXFZevf7WP-47" value="PK" style="shape=partialRectangle;connectable=0;fillColor=#76608a;top=0;left=0;bottom=0;right=0;fontStyle=1;overflow=hidden;whiteSpace=wrap;html=1;fontFamily=Helvetica;fontSize=12;fontColor=#ffffff;labelBackgroundColor=none;strokeColor=#432D57;" parent="rxXc-QOBDXRXFZevf7WP-46" vertex="1">
          <mxGeometry width="30" height="30" as="geometry">
            <mxRectangle width="30" height="30" as="alternateBounds" />
          </mxGeometry>
        </mxCell>
        <mxCell id="rxXc-QOBDXRXFZevf7WP-48" value="crm" style="shape=partialRectangle;connectable=0;fillColor=#76608a;top=0;left=0;bottom=0;right=0;align=left;spacingLeft=6;fontStyle=5;overflow=hidden;whiteSpace=wrap;html=1;fontFamily=Helvetica;fontSize=12;fontColor=#ffffff;labelBackgroundColor=none;strokeColor=#432D57;" parent="rxXc-QOBDXRXFZevf7WP-46" vertex="1">
          <mxGeometry x="30" width="123" height="30" as="geometry">
            <mxRectangle width="123" height="30" as="alternateBounds" />
          </mxGeometry>
        </mxCell>
        <mxCell id="rxXc-QOBDXRXFZevf7WP-49" value="" style="shape=tableRow;horizontal=0;startSize=0;swimlaneHead=0;swimlaneBody=0;fillColor=#76608a;collapsible=0;dropTarget=0;points=[[0,0.5],[1,0.5]];portConstraint=eastwest;top=0;left=0;right=0;bottom=0;fontFamily=Helvetica;fontSize=12;fontColor=#ffffff;labelBackgroundColor=none;strokeColor=#432D57;" parent="rxXc-QOBDXRXFZevf7WP-45" vertex="1">
          <mxGeometry y="60" width="153" height="30" as="geometry" />
        </mxCell>
        <mxCell id="rxXc-QOBDXRXFZevf7WP-50" value="" style="shape=partialRectangle;connectable=0;fillColor=#76608a;top=0;left=0;bottom=0;right=0;editable=1;overflow=hidden;whiteSpace=wrap;html=1;fontFamily=Helvetica;fontSize=12;fontColor=#ffffff;labelBackgroundColor=none;strokeColor=#432D57;" parent="rxXc-QOBDXRXFZevf7WP-49" vertex="1">
          <mxGeometry width="30" height="30" as="geometry">
            <mxRectangle width="30" height="30" as="alternateBounds" />
          </mxGeometry>
        </mxCell>
        <mxCell id="rxXc-QOBDXRXFZevf7WP-51" value="nome" style="shape=partialRectangle;connectable=0;fillColor=#76608a;top=0;left=0;bottom=0;right=0;align=left;spacingLeft=6;overflow=hidden;whiteSpace=wrap;html=1;fontFamily=Helvetica;fontSize=12;fontColor=#ffffff;labelBackgroundColor=none;strokeColor=#432D57;" parent="rxXc-QOBDXRXFZevf7WP-49" vertex="1">
          <mxGeometry x="30" width="123" height="30" as="geometry">
            <mxRectangle width="123" height="30" as="alternateBounds" />
          </mxGeometry>
        </mxCell>
        <mxCell id="rxXc-QOBDXRXFZevf7WP-52" value="" style="shape=tableRow;horizontal=0;startSize=0;swimlaneHead=0;swimlaneBody=0;fillColor=#76608a;collapsible=0;dropTarget=0;points=[[0,0.5],[1,0.5]];portConstraint=eastwest;top=0;left=0;right=0;bottom=0;fontFamily=Helvetica;fontSize=12;fontColor=#ffffff;labelBackgroundColor=none;strokeColor=#432D57;" parent="rxXc-QOBDXRXFZevf7WP-45" vertex="1">
          <mxGeometry y="90" width="153" height="30" as="geometry" />
        </mxCell>
        <mxCell id="rxXc-QOBDXRXFZevf7WP-53" value="FK" style="shape=partialRectangle;connectable=0;fillColor=#76608a;top=0;left=0;bottom=0;right=0;editable=1;overflow=hidden;whiteSpace=wrap;html=1;fontFamily=Helvetica;fontSize=12;fontColor=#ffffff;labelBackgroundColor=none;strokeColor=#432D57;" parent="rxXc-QOBDXRXFZevf7WP-52" vertex="1">
          <mxGeometry width="30" height="30" as="geometry">
            <mxRectangle width="30" height="30" as="alternateBounds" />
          </mxGeometry>
        </mxCell>
        <mxCell id="rxXc-QOBDXRXFZevf7WP-54" value="nomeEspecialidade" style="shape=partialRectangle;connectable=0;fillColor=#76608a;top=0;left=0;bottom=0;right=0;align=left;spacingLeft=6;overflow=hidden;whiteSpace=wrap;html=1;fontFamily=Helvetica;fontSize=12;fontColor=#ffffff;labelBackgroundColor=none;strokeColor=#432D57;" parent="rxXc-QOBDXRXFZevf7WP-52" vertex="1">
          <mxGeometry x="30" width="123" height="30" as="geometry">
            <mxRectangle width="123" height="30" as="alternateBounds" />
          </mxGeometry>
        </mxCell>
        <mxCell id="rxXc-QOBDXRXFZevf7WP-55" value="&lt;font color=&quot;#000000&quot;&gt;Especialidade&lt;/font&gt;" style="shape=table;startSize=30;container=1;collapsible=1;childLayout=tableLayout;fixedRows=1;rowLines=0;fontStyle=1;align=center;resizeLast=1;html=1;fontFamily=Helvetica;fontSize=12;fontColor=#ffffff;labelBackgroundColor=none;strokeColor=#432D57;fillColor=#76608a;" parent="1" vertex="1">
          <mxGeometry x="251" y="742" width="129" height="60" as="geometry">
            <mxRectangle x="139.5" y="255" width="62" height="30" as="alternateBounds" />
          </mxGeometry>
        </mxCell>
        <mxCell id="rxXc-QOBDXRXFZevf7WP-56" value="" style="shape=tableRow;horizontal=0;startSize=0;swimlaneHead=0;swimlaneBody=0;fillColor=#76608a;collapsible=0;dropTarget=0;points=[[0,0.5],[1,0.5]];portConstraint=eastwest;top=0;left=0;right=0;bottom=1;fontFamily=Helvetica;fontSize=12;fontColor=#ffffff;labelBackgroundColor=none;strokeColor=#432D57;" parent="rxXc-QOBDXRXFZevf7WP-55" vertex="1">
          <mxGeometry y="30" width="129" height="30" as="geometry" />
        </mxCell>
        <mxCell id="rxXc-QOBDXRXFZevf7WP-57" value="PK" style="shape=partialRectangle;connectable=0;fillColor=#76608a;top=0;left=0;bottom=0;right=0;fontStyle=1;overflow=hidden;whiteSpace=wrap;html=1;fontFamily=Helvetica;fontSize=12;fontColor=#ffffff;labelBackgroundColor=none;strokeColor=#432D57;" parent="rxXc-QOBDXRXFZevf7WP-56" vertex="1">
          <mxGeometry width="30" height="30" as="geometry">
            <mxRectangle width="30" height="30" as="alternateBounds" />
          </mxGeometry>
        </mxCell>
        <mxCell id="rxXc-QOBDXRXFZevf7WP-58" value="nome" style="shape=partialRectangle;connectable=0;fillColor=#76608a;top=0;left=0;bottom=0;right=0;align=left;spacingLeft=6;fontStyle=5;overflow=hidden;whiteSpace=wrap;html=1;fontFamily=Helvetica;fontSize=12;fontColor=#ffffff;labelBackgroundColor=none;strokeColor=#432D57;" parent="rxXc-QOBDXRXFZevf7WP-56" vertex="1">
          <mxGeometry x="30" width="99" height="30" as="geometry">
            <mxRectangle width="99" height="30" as="alternateBounds" />
          </mxGeometry>
        </mxCell>
        <mxCell id="rxXc-QOBDXRXFZevf7WP-65" value="&lt;font color=&quot;#000000&quot;&gt;Consulta&lt;/font&gt;" style="shape=table;startSize=30;container=1;collapsible=1;childLayout=tableLayout;fixedRows=1;rowLines=0;fontStyle=1;align=center;resizeLast=1;html=1;fontFamily=Helvetica;fontSize=12;fontColor=#ffffff;labelBackgroundColor=none;strokeColor=#432D57;fillColor=#76608a;" parent="1" vertex="1">
          <mxGeometry x="427" y="742" width="157" height="240" as="geometry">
            <mxRectangle x="139.5" y="255" width="62" height="30" as="alternateBounds" />
          </mxGeometry>
        </mxCell>
        <mxCell id="rxXc-QOBDXRXFZevf7WP-66" value="" style="shape=tableRow;horizontal=0;startSize=0;swimlaneHead=0;swimlaneBody=0;fillColor=#76608a;collapsible=0;dropTarget=0;points=[[0,0.5],[1,0.5]];portConstraint=eastwest;top=0;left=0;right=0;bottom=1;fontFamily=Helvetica;fontSize=12;fontColor=#ffffff;labelBackgroundColor=none;strokeColor=#432D57;" parent="rxXc-QOBDXRXFZevf7WP-65" vertex="1">
          <mxGeometry y="30" width="157" height="30" as="geometry" />
        </mxCell>
        <mxCell id="rxXc-QOBDXRXFZevf7WP-67" value="PK" style="shape=partialRectangle;connectable=0;fillColor=#76608a;top=0;left=0;bottom=0;right=0;fontStyle=1;overflow=hidden;whiteSpace=wrap;html=1;fontFamily=Helvetica;fontSize=12;fontColor=#ffffff;labelBackgroundColor=none;strokeColor=#432D57;" parent="rxXc-QOBDXRXFZevf7WP-66" vertex="1">
          <mxGeometry width="30" height="30" as="geometry">
            <mxRectangle width="30" height="30" as="alternateBounds" />
          </mxGeometry>
        </mxCell>
        <mxCell id="rxXc-QOBDXRXFZevf7WP-68" value="id" style="shape=partialRectangle;connectable=0;fillColor=#76608a;top=0;left=0;bottom=0;right=0;align=left;spacingLeft=6;fontStyle=5;overflow=hidden;whiteSpace=wrap;html=1;fontFamily=Helvetica;fontSize=12;fontColor=#ffffff;labelBackgroundColor=none;strokeColor=#432D57;" parent="rxXc-QOBDXRXFZevf7WP-66" vertex="1">
          <mxGeometry x="30" width="127" height="30" as="geometry">
            <mxRectangle width="127" height="30" as="alternateBounds" />
          </mxGeometry>
        </mxCell>
        <mxCell id="rxXc-QOBDXRXFZevf7WP-69" value="" style="shape=tableRow;horizontal=0;startSize=0;swimlaneHead=0;swimlaneBody=0;fillColor=#76608a;collapsible=0;dropTarget=0;points=[[0,0.5],[1,0.5]];portConstraint=eastwest;top=0;left=0;right=0;bottom=0;fontFamily=Helvetica;fontSize=12;fontColor=#ffffff;labelBackgroundColor=none;strokeColor=#432D57;" parent="rxXc-QOBDXRXFZevf7WP-65" vertex="1">
          <mxGeometry y="60" width="157" height="30" as="geometry" />
        </mxCell>
        <mxCell id="rxXc-QOBDXRXFZevf7WP-70" value="" style="shape=partialRectangle;connectable=0;fillColor=#76608a;top=0;left=0;bottom=0;right=0;editable=1;overflow=hidden;whiteSpace=wrap;html=1;fontFamily=Helvetica;fontSize=12;fontColor=#ffffff;labelBackgroundColor=none;strokeColor=#432D57;" parent="rxXc-QOBDXRXFZevf7WP-69" vertex="1">
          <mxGeometry width="30" height="30" as="geometry">
            <mxRectangle width="30" height="30" as="alternateBounds" />
          </mxGeometry>
        </mxCell>
        <mxCell id="rxXc-QOBDXRXFZevf7WP-71" value="data" style="shape=partialRectangle;connectable=0;fillColor=#76608a;top=0;left=0;bottom=0;right=0;align=left;spacingLeft=6;overflow=hidden;whiteSpace=wrap;html=1;fontFamily=Helvetica;fontSize=12;fontColor=#ffffff;labelBackgroundColor=none;strokeColor=#432D57;" parent="rxXc-QOBDXRXFZevf7WP-69" vertex="1">
          <mxGeometry x="30" width="127" height="30" as="geometry">
            <mxRectangle width="127" height="30" as="alternateBounds" />
          </mxGeometry>
        </mxCell>
        <mxCell id="rxXc-QOBDXRXFZevf7WP-72" value="" style="shape=tableRow;horizontal=0;startSize=0;swimlaneHead=0;swimlaneBody=0;fillColor=#76608a;collapsible=0;dropTarget=0;points=[[0,0.5],[1,0.5]];portConstraint=eastwest;top=0;left=0;right=0;bottom=0;fontFamily=Helvetica;fontSize=12;fontColor=#ffffff;labelBackgroundColor=none;strokeColor=#432D57;" parent="rxXc-QOBDXRXFZevf7WP-65" vertex="1">
          <mxGeometry y="90" width="157" height="30" as="geometry" />
        </mxCell>
        <mxCell id="rxXc-QOBDXRXFZevf7WP-73" value="" style="shape=partialRectangle;connectable=0;fillColor=#76608a;top=0;left=0;bottom=0;right=0;editable=1;overflow=hidden;whiteSpace=wrap;html=1;fontFamily=Helvetica;fontSize=12;fontColor=#ffffff;labelBackgroundColor=none;strokeColor=#432D57;" parent="rxXc-QOBDXRXFZevf7WP-72" vertex="1">
          <mxGeometry width="30" height="30" as="geometry">
            <mxRectangle width="30" height="30" as="alternateBounds" />
          </mxGeometry>
        </mxCell>
        <mxCell id="rxXc-QOBDXRXFZevf7WP-74" value="hora" style="shape=partialRectangle;connectable=0;fillColor=#76608a;top=0;left=0;bottom=0;right=0;align=left;spacingLeft=6;overflow=hidden;whiteSpace=wrap;html=1;fontFamily=Helvetica;fontSize=12;fontColor=#ffffff;labelBackgroundColor=none;strokeColor=#432D57;" parent="rxXc-QOBDXRXFZevf7WP-72" vertex="1">
          <mxGeometry x="30" width="127" height="30" as="geometry">
            <mxRectangle width="127" height="30" as="alternateBounds" />
          </mxGeometry>
        </mxCell>
        <mxCell id="rxXc-QOBDXRXFZevf7WP-76" value="" style="shape=tableRow;horizontal=0;startSize=0;swimlaneHead=0;swimlaneBody=0;fillColor=#76608a;collapsible=0;dropTarget=0;points=[[0,0.5],[1,0.5]];portConstraint=eastwest;top=0;left=0;right=0;bottom=0;fontFamily=Helvetica;fontSize=12;fontColor=#ffffff;labelBackgroundColor=none;strokeColor=#432D57;" parent="rxXc-QOBDXRXFZevf7WP-65" vertex="1">
          <mxGeometry y="120" width="157" height="30" as="geometry" />
        </mxCell>
        <mxCell id="rxXc-QOBDXRXFZevf7WP-77" value="" style="shape=partialRectangle;connectable=0;fillColor=#76608a;top=0;left=0;bottom=0;right=0;editable=1;overflow=hidden;whiteSpace=wrap;html=1;fontFamily=Helvetica;fontSize=12;fontColor=#ffffff;labelBackgroundColor=none;strokeColor=#432D57;" parent="rxXc-QOBDXRXFZevf7WP-76" vertex="1">
          <mxGeometry width="30" height="30" as="geometry">
            <mxRectangle width="30" height="30" as="alternateBounds" />
          </mxGeometry>
        </mxCell>
        <mxCell id="rxXc-QOBDXRXFZevf7WP-78" value="valor" style="shape=partialRectangle;connectable=0;fillColor=#76608a;top=0;left=0;bottom=0;right=0;align=left;spacingLeft=6;overflow=hidden;whiteSpace=wrap;html=1;fontFamily=Helvetica;fontSize=12;fontColor=#ffffff;labelBackgroundColor=none;strokeColor=#432D57;" parent="rxXc-QOBDXRXFZevf7WP-76" vertex="1">
          <mxGeometry x="30" width="127" height="30" as="geometry">
            <mxRectangle width="127" height="30" as="alternateBounds" />
          </mxGeometry>
        </mxCell>
        <mxCell id="rxXc-QOBDXRXFZevf7WP-96" value="" style="shape=tableRow;horizontal=0;startSize=0;swimlaneHead=0;swimlaneBody=0;fillColor=#76608a;collapsible=0;dropTarget=0;points=[[0,0.5],[1,0.5]];portConstraint=eastwest;top=0;left=0;right=0;bottom=0;fontFamily=Helvetica;fontSize=12;fontColor=#ffffff;labelBackgroundColor=none;strokeColor=#432D57;" parent="rxXc-QOBDXRXFZevf7WP-65" vertex="1">
          <mxGeometry y="150" width="157" height="30" as="geometry" />
        </mxCell>
        <mxCell id="rxXc-QOBDXRXFZevf7WP-97" value="FK" style="shape=partialRectangle;connectable=0;fillColor=#76608a;top=0;left=0;bottom=0;right=0;editable=1;overflow=hidden;whiteSpace=wrap;html=1;fontFamily=Helvetica;fontSize=12;fontColor=#ffffff;labelBackgroundColor=none;strokeColor=#432D57;" parent="rxXc-QOBDXRXFZevf7WP-96" vertex="1">
          <mxGeometry width="30" height="30" as="geometry">
            <mxRectangle width="30" height="30" as="alternateBounds" />
          </mxGeometry>
        </mxCell>
        <mxCell id="rxXc-QOBDXRXFZevf7WP-98" value="nomeEspecialidade" style="shape=partialRectangle;connectable=0;fillColor=#76608a;top=0;left=0;bottom=0;right=0;align=left;spacingLeft=6;overflow=hidden;whiteSpace=wrap;html=1;fontFamily=Helvetica;fontSize=12;fontColor=#ffffff;labelBackgroundColor=none;strokeColor=#432D57;" parent="rxXc-QOBDXRXFZevf7WP-96" vertex="1">
          <mxGeometry x="30" width="127" height="30" as="geometry">
            <mxRectangle width="127" height="30" as="alternateBounds" />
          </mxGeometry>
        </mxCell>
        <mxCell id="rxXc-QOBDXRXFZevf7WP-92" value="" style="shape=tableRow;horizontal=0;startSize=0;swimlaneHead=0;swimlaneBody=0;fillColor=#76608a;collapsible=0;dropTarget=0;points=[[0,0.5],[1,0.5]];portConstraint=eastwest;top=0;left=0;right=0;bottom=0;fontFamily=Helvetica;fontSize=12;fontColor=#ffffff;labelBackgroundColor=none;strokeColor=#432D57;" parent="rxXc-QOBDXRXFZevf7WP-65" vertex="1">
          <mxGeometry y="180" width="157" height="30" as="geometry" />
        </mxCell>
        <mxCell id="rxXc-QOBDXRXFZevf7WP-93" value="FK" style="shape=partialRectangle;connectable=0;fillColor=#76608a;top=0;left=0;bottom=0;right=0;editable=1;overflow=hidden;whiteSpace=wrap;html=1;fontFamily=Helvetica;fontSize=12;fontColor=#ffffff;labelBackgroundColor=none;strokeColor=#432D57;" parent="rxXc-QOBDXRXFZevf7WP-92" vertex="1">
          <mxGeometry width="30" height="30" as="geometry">
            <mxRectangle width="30" height="30" as="alternateBounds" />
          </mxGeometry>
        </mxCell>
        <mxCell id="rxXc-QOBDXRXFZevf7WP-94" value="crmMedico" style="shape=partialRectangle;connectable=0;fillColor=#76608a;top=0;left=0;bottom=0;right=0;align=left;spacingLeft=6;overflow=hidden;whiteSpace=wrap;html=1;fontFamily=Helvetica;fontSize=12;fontColor=#ffffff;labelBackgroundColor=none;strokeColor=#432D57;" parent="rxXc-QOBDXRXFZevf7WP-92" vertex="1">
          <mxGeometry x="30" width="127" height="30" as="geometry">
            <mxRectangle width="127" height="30" as="alternateBounds" />
          </mxGeometry>
        </mxCell>
        <mxCell id="rxXc-QOBDXRXFZevf7WP-100" value="" style="shape=tableRow;horizontal=0;startSize=0;swimlaneHead=0;swimlaneBody=0;fillColor=#76608a;collapsible=0;dropTarget=0;points=[[0,0.5],[1,0.5]];portConstraint=eastwest;top=0;left=0;right=0;bottom=0;fontFamily=Helvetica;fontSize=12;fontColor=#ffffff;labelBackgroundColor=none;strokeColor=#432D57;" parent="rxXc-QOBDXRXFZevf7WP-65" vertex="1">
          <mxGeometry y="210" width="157" height="30" as="geometry" />
        </mxCell>
        <mxCell id="rxXc-QOBDXRXFZevf7WP-101" value="FK" style="shape=partialRectangle;connectable=0;fillColor=#76608a;top=0;left=0;bottom=0;right=0;editable=1;overflow=hidden;whiteSpace=wrap;html=1;fontFamily=Helvetica;fontSize=12;fontColor=#ffffff;labelBackgroundColor=none;strokeColor=#432D57;" parent="rxXc-QOBDXRXFZevf7WP-100" vertex="1">
          <mxGeometry width="30" height="30" as="geometry">
            <mxRectangle width="30" height="30" as="alternateBounds" />
          </mxGeometry>
        </mxCell>
        <mxCell id="rxXc-QOBDXRXFZevf7WP-102" value="numUtentePaciente" style="shape=partialRectangle;connectable=0;fillColor=#76608a;top=0;left=0;bottom=0;right=0;align=left;spacingLeft=6;overflow=hidden;whiteSpace=wrap;html=1;fontFamily=Helvetica;fontSize=12;fontColor=#ffffff;labelBackgroundColor=none;strokeColor=#432D57;" parent="rxXc-QOBDXRXFZevf7WP-100" vertex="1">
          <mxGeometry x="30" width="127" height="30" as="geometry">
            <mxRectangle width="127" height="30" as="alternateBounds" />
          </mxGeometry>
        </mxCell>
        <mxCell id="rxXc-QOBDXRXFZevf7WP-75" style="edgeStyle=orthogonalEdgeStyle;shape=connector;rounded=0;orthogonalLoop=1;jettySize=auto;html=1;entryX=1;entryY=0.5;entryDx=0;entryDy=0;strokeColor=#432D57;align=center;verticalAlign=middle;fontFamily=Helvetica;fontSize=11;fontColor=default;labelBackgroundColor=none;endArrow=ERzeroToMany;exitX=0;exitY=0.5;exitDx=0;exitDy=0;startArrow=ERmandOne;startFill=0;endFill=0;fillColor=#76608a;" parent="1" source="rxXc-QOBDXRXFZevf7WP-56" target="rxXc-QOBDXRXFZevf7WP-52" edge="1">
          <mxGeometry relative="1" as="geometry" />
        </mxCell>
        <mxCell id="rxXc-QOBDXRXFZevf7WP-79" value="&lt;font color=&quot;#000000&quot;&gt;Paciente&lt;/font&gt;" style="shape=table;startSize=30;container=1;collapsible=1;childLayout=tableLayout;fixedRows=1;rowLines=0;fontStyle=1;align=center;resizeLast=1;html=1;fontFamily=Helvetica;fontSize=12;fontColor=#ffffff;labelBackgroundColor=none;strokeColor=#432D57;fillColor=#76608a;" parent="1" vertex="1">
          <mxGeometry x="652" y="742" width="108" height="150" as="geometry">
            <mxRectangle x="139.5" y="255" width="62" height="30" as="alternateBounds" />
          </mxGeometry>
        </mxCell>
        <mxCell id="rxXc-QOBDXRXFZevf7WP-80" value="" style="shape=tableRow;horizontal=0;startSize=0;swimlaneHead=0;swimlaneBody=0;fillColor=#76608a;collapsible=0;dropTarget=0;points=[[0,0.5],[1,0.5]];portConstraint=eastwest;top=0;left=0;right=0;bottom=1;fontFamily=Helvetica;fontSize=12;fontColor=#ffffff;labelBackgroundColor=none;strokeColor=#432D57;" parent="rxXc-QOBDXRXFZevf7WP-79" vertex="1">
          <mxGeometry y="30" width="108" height="30" as="geometry" />
        </mxCell>
        <mxCell id="rxXc-QOBDXRXFZevf7WP-81" value="PK" style="shape=partialRectangle;connectable=0;fillColor=#76608a;top=0;left=0;bottom=0;right=0;fontStyle=1;overflow=hidden;whiteSpace=wrap;html=1;fontFamily=Helvetica;fontSize=12;fontColor=#ffffff;labelBackgroundColor=none;strokeColor=#432D57;" parent="rxXc-QOBDXRXFZevf7WP-80" vertex="1">
          <mxGeometry width="30" height="30" as="geometry">
            <mxRectangle width="30" height="30" as="alternateBounds" />
          </mxGeometry>
        </mxCell>
        <mxCell id="rxXc-QOBDXRXFZevf7WP-82" value="numUtente" style="shape=partialRectangle;connectable=0;fillColor=#76608a;top=0;left=0;bottom=0;right=0;align=left;spacingLeft=6;fontStyle=5;overflow=hidden;whiteSpace=wrap;html=1;fontFamily=Helvetica;fontSize=12;fontColor=#ffffff;labelBackgroundColor=none;strokeColor=#432D57;" parent="rxXc-QOBDXRXFZevf7WP-80" vertex="1">
          <mxGeometry x="30" width="78" height="30" as="geometry">
            <mxRectangle width="78" height="30" as="alternateBounds" />
          </mxGeometry>
        </mxCell>
        <mxCell id="rxXc-QOBDXRXFZevf7WP-83" value="" style="shape=tableRow;horizontal=0;startSize=0;swimlaneHead=0;swimlaneBody=0;fillColor=#76608a;collapsible=0;dropTarget=0;points=[[0,0.5],[1,0.5]];portConstraint=eastwest;top=0;left=0;right=0;bottom=0;fontFamily=Helvetica;fontSize=12;fontColor=#ffffff;labelBackgroundColor=none;strokeColor=#432D57;" parent="rxXc-QOBDXRXFZevf7WP-79" vertex="1">
          <mxGeometry y="60" width="108" height="30" as="geometry" />
        </mxCell>
        <mxCell id="rxXc-QOBDXRXFZevf7WP-84" value="" style="shape=partialRectangle;connectable=0;fillColor=#76608a;top=0;left=0;bottom=0;right=0;editable=1;overflow=hidden;whiteSpace=wrap;html=1;fontFamily=Helvetica;fontSize=12;fontColor=#ffffff;labelBackgroundColor=none;strokeColor=#432D57;" parent="rxXc-QOBDXRXFZevf7WP-83" vertex="1">
          <mxGeometry width="30" height="30" as="geometry">
            <mxRectangle width="30" height="30" as="alternateBounds" />
          </mxGeometry>
        </mxCell>
        <mxCell id="rxXc-QOBDXRXFZevf7WP-85" value="nome" style="shape=partialRectangle;connectable=0;fillColor=#76608a;top=0;left=0;bottom=0;right=0;align=left;spacingLeft=6;overflow=hidden;whiteSpace=wrap;html=1;fontFamily=Helvetica;fontSize=12;fontColor=#ffffff;labelBackgroundColor=none;strokeColor=#432D57;" parent="rxXc-QOBDXRXFZevf7WP-83" vertex="1">
          <mxGeometry x="30" width="78" height="30" as="geometry">
            <mxRectangle width="78" height="30" as="alternateBounds" />
          </mxGeometry>
        </mxCell>
        <mxCell id="rxXc-QOBDXRXFZevf7WP-86" value="" style="shape=tableRow;horizontal=0;startSize=0;swimlaneHead=0;swimlaneBody=0;fillColor=#76608a;collapsible=0;dropTarget=0;points=[[0,0.5],[1,0.5]];portConstraint=eastwest;top=0;left=0;right=0;bottom=0;fontFamily=Helvetica;fontSize=12;fontColor=#ffffff;labelBackgroundColor=none;strokeColor=#432D57;" parent="rxXc-QOBDXRXFZevf7WP-79" vertex="1">
          <mxGeometry y="90" width="108" height="30" as="geometry" />
        </mxCell>
        <mxCell id="rxXc-QOBDXRXFZevf7WP-87" value="" style="shape=partialRectangle;connectable=0;fillColor=#76608a;top=0;left=0;bottom=0;right=0;editable=1;overflow=hidden;whiteSpace=wrap;html=1;fontFamily=Helvetica;fontSize=12;fontColor=#ffffff;labelBackgroundColor=none;strokeColor=#432D57;" parent="rxXc-QOBDXRXFZevf7WP-86" vertex="1">
          <mxGeometry width="30" height="30" as="geometry">
            <mxRectangle width="30" height="30" as="alternateBounds" />
          </mxGeometry>
        </mxCell>
        <mxCell id="rxXc-QOBDXRXFZevf7WP-88" value="idade" style="shape=partialRectangle;connectable=0;fillColor=#76608a;top=0;left=0;bottom=0;right=0;align=left;spacingLeft=6;overflow=hidden;whiteSpace=wrap;html=1;fontFamily=Helvetica;fontSize=12;fontColor=#ffffff;labelBackgroundColor=none;strokeColor=#432D57;" parent="rxXc-QOBDXRXFZevf7WP-86" vertex="1">
          <mxGeometry x="30" width="78" height="30" as="geometry">
            <mxRectangle width="78" height="30" as="alternateBounds" />
          </mxGeometry>
        </mxCell>
        <mxCell id="rxXc-QOBDXRXFZevf7WP-89" value="" style="shape=tableRow;horizontal=0;startSize=0;swimlaneHead=0;swimlaneBody=0;fillColor=#76608a;collapsible=0;dropTarget=0;points=[[0,0.5],[1,0.5]];portConstraint=eastwest;top=0;left=0;right=0;bottom=0;fontFamily=Helvetica;fontSize=12;fontColor=#ffffff;labelBackgroundColor=none;strokeColor=#432D57;" parent="rxXc-QOBDXRXFZevf7WP-79" vertex="1">
          <mxGeometry y="120" width="108" height="30" as="geometry" />
        </mxCell>
        <mxCell id="rxXc-QOBDXRXFZevf7WP-90" value="" style="shape=partialRectangle;connectable=0;fillColor=#76608a;top=0;left=0;bottom=0;right=0;editable=1;overflow=hidden;whiteSpace=wrap;html=1;fontFamily=Helvetica;fontSize=12;fontColor=#ffffff;labelBackgroundColor=none;strokeColor=#432D57;" parent="rxXc-QOBDXRXFZevf7WP-89" vertex="1">
          <mxGeometry width="30" height="30" as="geometry">
            <mxRectangle width="30" height="30" as="alternateBounds" />
          </mxGeometry>
        </mxCell>
        <mxCell id="rxXc-QOBDXRXFZevf7WP-91" value="morada" style="shape=partialRectangle;connectable=0;fillColor=#76608a;top=0;left=0;bottom=0;right=0;align=left;spacingLeft=6;overflow=hidden;whiteSpace=wrap;html=1;fontFamily=Helvetica;fontSize=12;fontColor=#ffffff;labelBackgroundColor=none;strokeColor=#432D57;" parent="rxXc-QOBDXRXFZevf7WP-89" vertex="1">
          <mxGeometry x="30" width="78" height="30" as="geometry">
            <mxRectangle width="78" height="30" as="alternateBounds" />
          </mxGeometry>
        </mxCell>
        <mxCell id="rxXc-QOBDXRXFZevf7WP-95" style="edgeStyle=orthogonalEdgeStyle;shape=connector;rounded=0;orthogonalLoop=1;jettySize=auto;html=1;entryX=0;entryY=0.5;entryDx=0;entryDy=0;strokeColor=#432D57;align=center;verticalAlign=middle;fontFamily=Helvetica;fontSize=11;fontColor=default;labelBackgroundColor=none;endArrow=ERmandOne;endFill=0;startArrow=ERzeroToMany;startFill=0;fillColor=#76608a;" parent="1" source="rxXc-QOBDXRXFZevf7WP-92" target="rxXc-QOBDXRXFZevf7WP-46" edge="1">
          <mxGeometry relative="1" as="geometry" />
        </mxCell>
        <mxCell id="rxXc-QOBDXRXFZevf7WP-99" style="edgeStyle=orthogonalEdgeStyle;shape=connector;rounded=0;orthogonalLoop=1;jettySize=auto;html=1;entryX=1;entryY=0.5;entryDx=0;entryDy=0;strokeColor=#432D57;align=center;verticalAlign=middle;fontFamily=Helvetica;fontSize=11;fontColor=default;labelBackgroundColor=none;endArrow=ERmandOne;startArrow=ERzeroToMany;startFill=0;endFill=0;fillColor=#76608a;" parent="1" source="rxXc-QOBDXRXFZevf7WP-96" target="rxXc-QOBDXRXFZevf7WP-56" edge="1">
          <mxGeometry relative="1" as="geometry" />
        </mxCell>
        <mxCell id="rxXc-QOBDXRXFZevf7WP-103" style="edgeStyle=orthogonalEdgeStyle;shape=connector;rounded=0;orthogonalLoop=1;jettySize=auto;html=1;entryX=0;entryY=0.5;entryDx=0;entryDy=0;strokeColor=#432D57;align=center;verticalAlign=middle;fontFamily=Helvetica;fontSize=11;fontColor=default;labelBackgroundColor=none;endArrow=ERmandOne;exitX=1;exitY=0.5;exitDx=0;exitDy=0;startArrow=ERzeroToMany;startFill=0;endFill=0;fillColor=#76608a;" parent="1" source="rxXc-QOBDXRXFZevf7WP-100" target="rxXc-QOBDXRXFZevf7WP-80" edge="1">
          <mxGeometry relative="1" as="geometry" />
        </mxCell>
        <mxCell id="DCsRMmaYXh8GikpMAJH6-1" value="Quarto" style="whiteSpace=wrap;html=1;align=center;labelBackgroundColor=none;fillColor=#56517E;strokeColor=#EEEEEE;fontColor=#FFFFFF;" parent="1" vertex="1">
          <mxGeometry x="149" y="1339" width="100" height="40" as="geometry" />
        </mxCell>
        <mxCell id="DCsRMmaYXh8GikpMAJH6-2" value="Cliente" style="whiteSpace=wrap;html=1;align=center;labelBackgroundColor=none;fillColor=#56517E;strokeColor=#EEEEEE;fontColor=#FFFFFF;" parent="1" vertex="1">
          <mxGeometry x="488" y="1337" width="100" height="40" as="geometry" />
        </mxCell>
        <mxCell id="DCsRMmaYXh8GikpMAJH6-3" value="Reserva" style="shape=rhombus;perimeter=rhombusPerimeter;whiteSpace=wrap;html=1;align=center;strokeColor=#EEEEEE;fontColor=#FFFFFF;fillColor=#56517E;labelBackgroundColor=none;" parent="1" vertex="1">
          <mxGeometry x="319" y="1329" width="120" height="60" as="geometry" />
        </mxCell>
        <mxCell id="DCsRMmaYXh8GikpMAJH6-4" value="" style="endArrow=none;html=1;rounded=0;strokeColor=#182E3E;align=center;verticalAlign=middle;fontFamily=Helvetica;fontSize=11;fontColor=default;labelBackgroundColor=default;startArrow=ERmany;startFill=0;" parent="1" source="DCsRMmaYXh8GikpMAJH6-2" target="DCsRMmaYXh8GikpMAJH6-3" edge="1">
          <mxGeometry relative="1" as="geometry">
            <mxPoint x="495" y="1338" as="sourcePoint" />
            <mxPoint x="335" y="1338" as="targetPoint" />
          </mxGeometry>
        </mxCell>
        <mxCell id="DCsRMmaYXh8GikpMAJH6-5" value="" style="endArrow=none;html=1;rounded=0;strokeColor=#182E3E;align=center;verticalAlign=middle;fontFamily=Helvetica;fontSize=11;fontColor=default;labelBackgroundColor=default;startArrow=ERmany;startFill=0;" parent="1" source="DCsRMmaYXh8GikpMAJH6-1" target="DCsRMmaYXh8GikpMAJH6-3" edge="1">
          <mxGeometry relative="1" as="geometry">
            <mxPoint x="335" y="1338" as="sourcePoint" />
            <mxPoint x="495" y="1338" as="targetPoint" />
          </mxGeometry>
        </mxCell>
        <mxCell id="DCsRMmaYXh8GikpMAJH6-6" style="edgeStyle=none;shape=connector;rounded=0;orthogonalLoop=1;jettySize=auto;html=1;strokeColor=#182E3E;align=center;verticalAlign=middle;fontFamily=Helvetica;fontSize=11;fontColor=default;labelBackgroundColor=default;endArrow=none;endFill=0;" parent="1" source="DCsRMmaYXh8GikpMAJH6-7" target="DCsRMmaYXh8GikpMAJH6-1" edge="1">
          <mxGeometry relative="1" as="geometry" />
        </mxCell>
        <mxCell id="DCsRMmaYXh8GikpMAJH6-7" value="NÃºmero" style="ellipse;whiteSpace=wrap;html=1;align=center;strokeColor=#EEEEEE;fontColor=#FFFFFF;fillColor=#56517E;" parent="1" vertex="1">
          <mxGeometry x="67" y="1394" width="100" height="40" as="geometry" />
        </mxCell>
        <mxCell id="DCsRMmaYXh8GikpMAJH6-8" style="edgeStyle=none;shape=connector;rounded=0;orthogonalLoop=1;jettySize=auto;html=1;strokeColor=#182E3E;align=center;verticalAlign=middle;fontFamily=Helvetica;fontSize=11;fontColor=default;labelBackgroundColor=default;endArrow=none;endFill=0;" parent="1" source="DCsRMmaYXh8GikpMAJH6-9" target="DCsRMmaYXh8GikpMAJH6-2" edge="1">
          <mxGeometry relative="1" as="geometry">
            <mxPoint x="795" y="1283" as="targetPoint" />
          </mxGeometry>
        </mxCell>
        <mxCell id="DCsRMmaYXh8GikpMAJH6-9" value="NIF" style="ellipse;whiteSpace=wrap;html=1;align=center;strokeColor=#EEEEEE;fontColor=#FFFFFF;fillColor=#56517E;" parent="1" vertex="1">
          <mxGeometry x="605" y="1280" width="100" height="40" as="geometry" />
        </mxCell>
        <mxCell id="DCsRMmaYXh8GikpMAJH6-10" style="edgeStyle=none;shape=connector;rounded=0;orthogonalLoop=1;jettySize=auto;html=1;strokeColor=#182E3E;align=center;verticalAlign=middle;fontFamily=Helvetica;fontSize=11;fontColor=default;labelBackgroundColor=default;endArrow=none;endFill=0;" parent="1" source="DCsRMmaYXh8GikpMAJH6-11" target="DCsRMmaYXh8GikpMAJH6-2" edge="1">
          <mxGeometry relative="1" as="geometry" />
        </mxCell>
        <mxCell id="DCsRMmaYXh8GikpMAJH6-11" value="Nome" style="ellipse;whiteSpace=wrap;html=1;align=center;strokeColor=#EEEEEE;fontColor=#FFFFFF;fillColor=#56517E;" parent="1" vertex="1">
          <mxGeometry x="627" y="1337" width="100" height="40" as="geometry" />
        </mxCell>
        <mxCell id="DCsRMmaYXh8GikpMAJH6-12" style="edgeStyle=none;shape=connector;rounded=0;orthogonalLoop=1;jettySize=auto;html=1;strokeColor=#182E3E;align=center;verticalAlign=middle;fontFamily=Helvetica;fontSize=11;fontColor=default;labelBackgroundColor=default;endArrow=none;endFill=0;" parent="1" source="DCsRMmaYXh8GikpMAJH6-13" target="DCsRMmaYXh8GikpMAJH6-2" edge="1">
          <mxGeometry relative="1" as="geometry" />
        </mxCell>
        <mxCell id="DCsRMmaYXh8GikpMAJH6-13" value="Nacionalidade" style="ellipse;whiteSpace=wrap;html=1;align=center;strokeColor=#EEEEEE;fontColor=#FFFFFF;fillColor=#56517E;" parent="1" vertex="1">
          <mxGeometry x="605" y="1392" width="100" height="40" as="geometry" />
        </mxCell>
        <mxCell id="DCsRMmaYXh8GikpMAJH6-14" style="edgeStyle=none;shape=connector;rounded=0;orthogonalLoop=1;jettySize=auto;html=1;strokeColor=#182E3E;align=center;verticalAlign=middle;fontFamily=Helvetica;fontSize=11;fontColor=default;labelBackgroundColor=default;endArrow=none;endFill=0;" parent="1" source="DCsRMmaYXh8GikpMAJH6-15" target="DCsRMmaYXh8GikpMAJH6-1" edge="1">
          <mxGeometry relative="1" as="geometry" />
        </mxCell>
        <mxCell id="DCsRMmaYXh8GikpMAJH6-15" value="Quantidade de camas" style="ellipse;whiteSpace=wrap;html=1;align=center;strokeColor=#EEEEEE;fontColor=#FFFFFF;fillColor=#56517E;" parent="1" vertex="1">
          <mxGeometry x="72" y="1280" width="100" height="40" as="geometry" />
        </mxCell>
        <mxCell id="DCsRMmaYXh8GikpMAJH6-16" value="Data" style="ellipse;whiteSpace=wrap;html=1;align=center;strokeColor=#EEEEEE;fontColor=#FFFFFF;fillColor=#56517E;" parent="1" vertex="1">
          <mxGeometry x="402" y="1264" width="100" height="40" as="geometry" />
        </mxCell>
        <mxCell id="DCsRMmaYXh8GikpMAJH6-17" value="DuraÃ§Ã£o" style="ellipse;whiteSpace=wrap;html=1;align=center;strokeColor=#EEEEEE;fontColor=#FFFFFF;fillColor=#56517E;" parent="1" vertex="1">
          <mxGeometry x="249" y="1264" width="100" height="40" as="geometry" />
        </mxCell>
        <mxCell id="DCsRMmaYXh8GikpMAJH6-18" value="" style="endArrow=none;html=1;rounded=0;strokeColor=#182E3E;align=center;verticalAlign=middle;fontFamily=Helvetica;fontSize=11;fontColor=default;labelBackgroundColor=default;" parent="1" source="DCsRMmaYXh8GikpMAJH6-3" target="DCsRMmaYXh8GikpMAJH6-16" edge="1">
          <mxGeometry relative="1" as="geometry">
            <mxPoint x="335" y="1338" as="sourcePoint" />
            <mxPoint x="495" y="1338" as="targetPoint" />
          </mxGeometry>
        </mxCell>
        <mxCell id="DCsRMmaYXh8GikpMAJH6-19" value="" style="endArrow=none;html=1;rounded=0;strokeColor=#182E3E;align=center;verticalAlign=middle;fontFamily=Helvetica;fontSize=11;fontColor=default;labelBackgroundColor=default;" parent="1" source="DCsRMmaYXh8GikpMAJH6-17" target="DCsRMmaYXh8GikpMAJH6-3" edge="1">
          <mxGeometry relative="1" as="geometry">
            <mxPoint x="249" y="1314.58" as="sourcePoint" />
            <mxPoint x="409" y="1314.58" as="targetPoint" />
          </mxGeometry>
        </mxCell>
        <mxCell id="DCsRMmaYXh8GikpMAJH6-20" value="Em noites" style="shape=note;size=20;whiteSpace=wrap;html=1;strokeColor=#432D57;fontFamily=Helvetica;fontSize=11;labelBackgroundColor=none;fillColor=#76608a;fontColor=#ffffff;fontStyle=0" parent="1" vertex="1">
          <mxGeometry x="249" y="1204" width="100" height="41" as="geometry" />
        </mxCell>
        <mxCell id="DCsRMmaYXh8GikpMAJH6-21" value="" style="endArrow=none;html=1;rounded=0;strokeColor=#182E3E;align=center;verticalAlign=middle;fontFamily=Helvetica;fontSize=11;fontColor=default;labelBackgroundColor=default;" parent="1" source="DCsRMmaYXh8GikpMAJH6-20" target="DCsRMmaYXh8GikpMAJH6-17" edge="1">
          <mxGeometry relative="1" as="geometry">
            <mxPoint x="335" y="1338" as="sourcePoint" />
            <mxPoint x="495" y="1338" as="targetPoint" />
          </mxGeometry>
        </mxCell>
        <mxCell id="DCsRMmaYXh8GikpMAJH6-35" value="&lt;font color=&quot;#000000&quot;&gt;Quarto&lt;/font&gt;" style="shape=table;startSize=30;container=1;collapsible=1;childLayout=tableLayout;fixedRows=1;rowLines=0;fontStyle=1;align=center;resizeLast=1;html=1;fontFamily=Helvetica;fontSize=12;fontColor=#ffffff;labelBackgroundColor=none;strokeColor=#432D57;fillColor=#76608a;" parent="1" vertex="1">
          <mxGeometry x="67" y="1522" width="153" height="90" as="geometry">
            <mxRectangle x="139.5" y="255" width="62" height="30" as="alternateBounds" />
          </mxGeometry>
        </mxCell>
        <mxCell id="DCsRMmaYXh8GikpMAJH6-36" value="" style="shape=tableRow;horizontal=0;startSize=0;swimlaneHead=0;swimlaneBody=0;fillColor=#76608a;collapsible=0;dropTarget=0;points=[[0,0.5],[1,0.5]];portConstraint=eastwest;top=0;left=0;right=0;bottom=1;fontFamily=Helvetica;fontSize=12;fontColor=#ffffff;labelBackgroundColor=none;strokeColor=#432D57;" parent="DCsRMmaYXh8GikpMAJH6-35" vertex="1">
          <mxGeometry y="30" width="153" height="30" as="geometry" />
        </mxCell>
        <mxCell id="DCsRMmaYXh8GikpMAJH6-37" value="PK" style="shape=partialRectangle;connectable=0;fillColor=#76608a;top=0;left=0;bottom=0;right=0;fontStyle=1;overflow=hidden;whiteSpace=wrap;html=1;fontFamily=Helvetica;fontSize=12;fontColor=#ffffff;labelBackgroundColor=none;strokeColor=#432D57;" parent="DCsRMmaYXh8GikpMAJH6-36" vertex="1">
          <mxGeometry width="30" height="30" as="geometry">
            <mxRectangle width="30" height="30" as="alternateBounds" />
          </mxGeometry>
        </mxCell>
        <mxCell id="DCsRMmaYXh8GikpMAJH6-38" value="numero" style="shape=partialRectangle;connectable=0;fillColor=#76608a;top=0;left=0;bottom=0;right=0;align=left;spacingLeft=6;fontStyle=5;overflow=hidden;whiteSpace=wrap;html=1;fontFamily=Helvetica;fontSize=12;fontColor=#ffffff;labelBackgroundColor=none;strokeColor=#432D57;" parent="DCsRMmaYXh8GikpMAJH6-36" vertex="1">
          <mxGeometry x="30" width="123" height="30" as="geometry">
            <mxRectangle width="123" height="30" as="alternateBounds" />
          </mxGeometry>
        </mxCell>
        <mxCell id="DCsRMmaYXh8GikpMAJH6-39" value="" style="shape=tableRow;horizontal=0;startSize=0;swimlaneHead=0;swimlaneBody=0;fillColor=#76608a;collapsible=0;dropTarget=0;points=[[0,0.5],[1,0.5]];portConstraint=eastwest;top=0;left=0;right=0;bottom=0;fontFamily=Helvetica;fontSize=12;fontColor=#ffffff;labelBackgroundColor=none;strokeColor=#432D57;" parent="DCsRMmaYXh8GikpMAJH6-35" vertex="1">
          <mxGeometry y="60" width="153" height="30" as="geometry" />
        </mxCell>
        <mxCell id="DCsRMmaYXh8GikpMAJH6-40" value="" style="shape=partialRectangle;connectable=0;fillColor=#76608a;top=0;left=0;bottom=0;right=0;editable=1;overflow=hidden;whiteSpace=wrap;html=1;fontFamily=Helvetica;fontSize=12;fontColor=#ffffff;labelBackgroundColor=none;strokeColor=#432D57;" parent="DCsRMmaYXh8GikpMAJH6-39" vertex="1">
          <mxGeometry width="30" height="30" as="geometry">
            <mxRectangle width="30" height="30" as="alternateBounds" />
          </mxGeometry>
        </mxCell>
        <mxCell id="DCsRMmaYXh8GikpMAJH6-41" value="quantidadeCamas" style="shape=partialRectangle;connectable=0;fillColor=#76608a;top=0;left=0;bottom=0;right=0;align=left;spacingLeft=6;overflow=hidden;whiteSpace=wrap;html=1;fontFamily=Helvetica;fontSize=12;fontColor=#ffffff;labelBackgroundColor=none;strokeColor=#432D57;" parent="DCsRMmaYXh8GikpMAJH6-39" vertex="1">
          <mxGeometry x="30" width="123" height="30" as="geometry">
            <mxRectangle width="123" height="30" as="alternateBounds" />
          </mxGeometry>
        </mxCell>
        <mxCell id="DCsRMmaYXh8GikpMAJH6-45" value="&lt;font color=&quot;#000000&quot;&gt;Cliente&lt;/font&gt;" style="shape=table;startSize=30;container=1;collapsible=1;childLayout=tableLayout;fixedRows=1;rowLines=0;fontStyle=1;align=center;resizeLast=1;html=1;fontFamily=Helvetica;fontSize=12;fontColor=#ffffff;labelBackgroundColor=none;strokeColor=#432D57;fillColor=#76608a;" parent="1" vertex="1">
          <mxGeometry x="574" y="1522" width="153" height="120" as="geometry">
            <mxRectangle x="139.5" y="255" width="62" height="30" as="alternateBounds" />
          </mxGeometry>
        </mxCell>
        <mxCell id="DCsRMmaYXh8GikpMAJH6-46" value="" style="shape=tableRow;horizontal=0;startSize=0;swimlaneHead=0;swimlaneBody=0;fillColor=#76608a;collapsible=0;dropTarget=0;points=[[0,0.5],[1,0.5]];portConstraint=eastwest;top=0;left=0;right=0;bottom=1;fontFamily=Helvetica;fontSize=12;fontColor=#ffffff;labelBackgroundColor=none;strokeColor=#432D57;" parent="DCsRMmaYXh8GikpMAJH6-45" vertex="1">
          <mxGeometry y="30" width="153" height="30" as="geometry" />
        </mxCell>
        <mxCell id="DCsRMmaYXh8GikpMAJH6-47" value="PK" style="shape=partialRectangle;connectable=0;fillColor=#76608a;top=0;left=0;bottom=0;right=0;fontStyle=1;overflow=hidden;whiteSpace=wrap;html=1;fontFamily=Helvetica;fontSize=12;fontColor=#ffffff;labelBackgroundColor=none;strokeColor=#432D57;" parent="DCsRMmaYXh8GikpMAJH6-46" vertex="1">
          <mxGeometry width="30" height="30" as="geometry">
            <mxRectangle width="30" height="30" as="alternateBounds" />
          </mxGeometry>
        </mxCell>
        <mxCell id="DCsRMmaYXh8GikpMAJH6-48" value="nif" style="shape=partialRectangle;connectable=0;fillColor=#76608a;top=0;left=0;bottom=0;right=0;align=left;spacingLeft=6;fontStyle=5;overflow=hidden;whiteSpace=wrap;html=1;fontFamily=Helvetica;fontSize=12;fontColor=#ffffff;labelBackgroundColor=none;strokeColor=#432D57;" parent="DCsRMmaYXh8GikpMAJH6-46" vertex="1">
          <mxGeometry x="30" width="123" height="30" as="geometry">
            <mxRectangle width="123" height="30" as="alternateBounds" />
          </mxGeometry>
        </mxCell>
        <mxCell id="DCsRMmaYXh8GikpMAJH6-49" value="" style="shape=tableRow;horizontal=0;startSize=0;swimlaneHead=0;swimlaneBody=0;fillColor=#76608a;collapsible=0;dropTarget=0;points=[[0,0.5],[1,0.5]];portConstraint=eastwest;top=0;left=0;right=0;bottom=0;fontFamily=Helvetica;fontSize=12;fontColor=#ffffff;labelBackgroundColor=none;strokeColor=#432D57;" parent="DCsRMmaYXh8GikpMAJH6-45" vertex="1">
          <mxGeometry y="60" width="153" height="30" as="geometry" />
        </mxCell>
        <mxCell id="DCsRMmaYXh8GikpMAJH6-50" value="" style="shape=partialRectangle;connectable=0;fillColor=#76608a;top=0;left=0;bottom=0;right=0;editable=1;overflow=hidden;whiteSpace=wrap;html=1;fontFamily=Helvetica;fontSize=12;fontColor=#ffffff;labelBackgroundColor=none;strokeColor=#432D57;" parent="DCsRMmaYXh8GikpMAJH6-49" vertex="1">
          <mxGeometry width="30" height="30" as="geometry">
            <mxRectangle width="30" height="30" as="alternateBounds" />
          </mxGeometry>
        </mxCell>
        <mxCell id="DCsRMmaYXh8GikpMAJH6-51" value="nome" style="shape=partialRectangle;connectable=0;fillColor=#76608a;top=0;left=0;bottom=0;right=0;align=left;spacingLeft=6;overflow=hidden;whiteSpace=wrap;html=1;fontFamily=Helvetica;fontSize=12;fontColor=#ffffff;labelBackgroundColor=none;strokeColor=#432D57;" parent="DCsRMmaYXh8GikpMAJH6-49" vertex="1">
          <mxGeometry x="30" width="123" height="30" as="geometry">
            <mxRectangle width="123" height="30" as="alternateBounds" />
          </mxGeometry>
        </mxCell>
        <mxCell id="DCsRMmaYXh8GikpMAJH6-52" value="" style="shape=tableRow;horizontal=0;startSize=0;swimlaneHead=0;swimlaneBody=0;fillColor=#76608a;collapsible=0;dropTarget=0;points=[[0,0.5],[1,0.5]];portConstraint=eastwest;top=0;left=0;right=0;bottom=0;fontFamily=Helvetica;fontSize=12;fontColor=#ffffff;labelBackgroundColor=none;strokeColor=#432D57;" parent="DCsRMmaYXh8GikpMAJH6-45" vertex="1">
          <mxGeometry y="90" width="153" height="30" as="geometry" />
        </mxCell>
        <mxCell id="DCsRMmaYXh8GikpMAJH6-53" value="" style="shape=partialRectangle;connectable=0;fillColor=#76608a;top=0;left=0;bottom=0;right=0;editable=1;overflow=hidden;whiteSpace=wrap;html=1;fontFamily=Helvetica;fontSize=12;fontColor=#ffffff;labelBackgroundColor=none;strokeColor=#432D57;" parent="DCsRMmaYXh8GikpMAJH6-52" vertex="1">
          <mxGeometry width="30" height="30" as="geometry">
            <mxRectangle width="30" height="30" as="alternateBounds" />
          </mxGeometry>
        </mxCell>
        <mxCell id="DCsRMmaYXh8GikpMAJH6-54" value="nacionalidade" style="shape=partialRectangle;connectable=0;fillColor=#76608a;top=0;left=0;bottom=0;right=0;align=left;spacingLeft=6;overflow=hidden;whiteSpace=wrap;html=1;fontFamily=Helvetica;fontSize=12;fontColor=#ffffff;labelBackgroundColor=none;strokeColor=#432D57;" parent="DCsRMmaYXh8GikpMAJH6-52" vertex="1">
          <mxGeometry x="30" width="123" height="30" as="geometry">
            <mxRectangle width="123" height="30" as="alternateBounds" />
          </mxGeometry>
        </mxCell>
        <mxCell id="DCsRMmaYXh8GikpMAJH6-58" value="Quarto_Cliente" style="shape=table;startSize=30;container=1;collapsible=1;childLayout=tableLayout;fixedRows=1;rowLines=0;fontStyle=1;align=center;resizeLast=1;html=1;whiteSpace=wrap;fontFamily=Helvetica;fontSize=11;fontColor=#ffffff;labelBackgroundColor=none;strokeColor=#432D57;fillColor=#76608a;" parent="1" vertex="1">
          <mxGeometry x="324" y="1522" width="180" height="150" as="geometry" />
        </mxCell>
        <mxCell id="DCsRMmaYXh8GikpMAJH6-59" value="" style="shape=tableRow;horizontal=0;startSize=0;swimlaneHead=0;swimlaneBody=0;fillColor=#76608a;collapsible=0;dropTarget=0;points=[[0,0.5],[1,0.5]];portConstraint=eastwest;top=0;left=0;right=0;bottom=0;html=1;fontFamily=Helvetica;fontSize=11;fontColor=#ffffff;labelBackgroundColor=none;strokeColor=#432D57;" parent="DCsRMmaYXh8GikpMAJH6-58" vertex="1">
          <mxGeometry y="30" width="180" height="30" as="geometry" />
        </mxCell>
        <mxCell id="DCsRMmaYXh8GikpMAJH6-60" value="PK,FK1" style="shape=partialRectangle;connectable=0;fillColor=#76608a;top=0;left=0;bottom=0;right=0;fontStyle=1;overflow=hidden;html=1;whiteSpace=wrap;fontFamily=Helvetica;fontSize=11;fontColor=#ffffff;labelBackgroundColor=none;strokeColor=#432D57;" parent="DCsRMmaYXh8GikpMAJH6-59" vertex="1">
          <mxGeometry width="60" height="30" as="geometry">
            <mxRectangle width="60" height="30" as="alternateBounds" />
          </mxGeometry>
        </mxCell>
        <mxCell id="DCsRMmaYXh8GikpMAJH6-61" value="numeroQuarto" style="shape=partialRectangle;connectable=0;fillColor=#76608a;top=0;left=0;bottom=0;right=0;align=left;spacingLeft=6;fontStyle=5;overflow=hidden;html=1;whiteSpace=wrap;fontFamily=Helvetica;fontSize=11;fontColor=#ffffff;labelBackgroundColor=none;strokeColor=#432D57;" parent="DCsRMmaYXh8GikpMAJH6-59" vertex="1">
          <mxGeometry x="60" width="120" height="30" as="geometry">
            <mxRectangle width="120" height="30" as="alternateBounds" />
          </mxGeometry>
        </mxCell>
        <mxCell id="DCsRMmaYXh8GikpMAJH6-62" value="" style="shape=tableRow;horizontal=0;startSize=0;swimlaneHead=0;swimlaneBody=0;fillColor=#76608a;collapsible=0;dropTarget=0;points=[[0,0.5],[1,0.5]];portConstraint=eastwest;top=0;left=0;right=0;bottom=1;html=1;fontFamily=Helvetica;fontSize=11;fontColor=#ffffff;labelBackgroundColor=none;strokeColor=#432D57;" parent="DCsRMmaYXh8GikpMAJH6-58" vertex="1">
          <mxGeometry y="60" width="180" height="30" as="geometry" />
        </mxCell>
        <mxCell id="DCsRMmaYXh8GikpMAJH6-63" value="PK,FK2" style="shape=partialRectangle;connectable=0;fillColor=#76608a;top=0;left=0;bottom=0;right=0;fontStyle=1;overflow=hidden;html=1;whiteSpace=wrap;fontFamily=Helvetica;fontSize=11;fontColor=#ffffff;labelBackgroundColor=none;strokeColor=#432D57;" parent="DCsRMmaYXh8GikpMAJH6-62" vertex="1">
          <mxGeometry width="60" height="30" as="geometry">
            <mxRectangle width="60" height="30" as="alternateBounds" />
          </mxGeometry>
        </mxCell>
        <mxCell id="DCsRMmaYXh8GikpMAJH6-64" value="nifCliente" style="shape=partialRectangle;connectable=0;fillColor=#76608a;top=0;left=0;bottom=0;right=0;align=left;spacingLeft=6;fontStyle=5;overflow=hidden;html=1;whiteSpace=wrap;fontFamily=Helvetica;fontSize=11;fontColor=#ffffff;labelBackgroundColor=none;strokeColor=#432D57;" parent="DCsRMmaYXh8GikpMAJH6-62" vertex="1">
          <mxGeometry x="60" width="120" height="30" as="geometry">
            <mxRectangle width="120" height="30" as="alternateBounds" />
          </mxGeometry>
        </mxCell>
        <mxCell id="DCsRMmaYXh8GikpMAJH6-73" value="" style="shape=tableRow;horizontal=0;startSize=0;swimlaneHead=0;swimlaneBody=0;fillColor=#76608a;collapsible=0;dropTarget=0;points=[[0,0.5],[1,0.5]];portConstraint=eastwest;top=0;left=0;right=0;bottom=0;fontFamily=Helvetica;fontSize=11;fontColor=#ffffff;labelBackgroundColor=none;strokeColor=#432D57;" parent="DCsRMmaYXh8GikpMAJH6-58" vertex="1">
          <mxGeometry y="90" width="180" height="30" as="geometry" />
        </mxCell>
        <mxCell id="DCsRMmaYXh8GikpMAJH6-74" value="" style="shape=partialRectangle;connectable=0;fillColor=#76608a;top=0;left=0;bottom=0;right=0;editable=1;overflow=hidden;fontFamily=Helvetica;fontSize=11;fontColor=#ffffff;labelBackgroundColor=none;strokeColor=#432D57;" parent="DCsRMmaYXh8GikpMAJH6-73" vertex="1">
          <mxGeometry width="60" height="30" as="geometry">
            <mxRectangle width="60" height="30" as="alternateBounds" />
          </mxGeometry>
        </mxCell>
        <mxCell id="DCsRMmaYXh8GikpMAJH6-75" value="duracao" style="shape=partialRectangle;connectable=0;fillColor=#76608a;top=0;left=0;bottom=0;right=0;align=left;spacingLeft=6;overflow=hidden;fontFamily=Helvetica;fontSize=11;fontColor=#ffffff;labelBackgroundColor=none;strokeColor=#432D57;" parent="DCsRMmaYXh8GikpMAJH6-73" vertex="1">
          <mxGeometry x="60" width="120" height="30" as="geometry">
            <mxRectangle width="120" height="30" as="alternateBounds" />
          </mxGeometry>
        </mxCell>
        <mxCell id="DCsRMmaYXh8GikpMAJH6-76" value="" style="shape=tableRow;horizontal=0;startSize=0;swimlaneHead=0;swimlaneBody=0;fillColor=#76608a;collapsible=0;dropTarget=0;points=[[0,0.5],[1,0.5]];portConstraint=eastwest;top=0;left=0;right=0;bottom=0;fontFamily=Helvetica;fontSize=11;fontColor=#ffffff;labelBackgroundColor=none;strokeColor=#432D57;" parent="DCsRMmaYXh8GikpMAJH6-58" vertex="1">
          <mxGeometry y="120" width="180" height="30" as="geometry" />
        </mxCell>
        <mxCell id="DCsRMmaYXh8GikpMAJH6-77" value="" style="shape=partialRectangle;connectable=0;fillColor=#76608a;top=0;left=0;bottom=0;right=0;editable=1;overflow=hidden;fontFamily=Helvetica;fontSize=11;fontColor=#ffffff;labelBackgroundColor=none;strokeColor=#432D57;" parent="DCsRMmaYXh8GikpMAJH6-76" vertex="1">
          <mxGeometry width="60" height="30" as="geometry">
            <mxRectangle width="60" height="30" as="alternateBounds" />
          </mxGeometry>
        </mxCell>
        <mxCell id="DCsRMmaYXh8GikpMAJH6-78" value="data" style="shape=partialRectangle;connectable=0;fillColor=#76608a;top=0;left=0;bottom=0;right=0;align=left;spacingLeft=6;overflow=hidden;fontFamily=Helvetica;fontSize=11;fontColor=#ffffff;labelBackgroundColor=none;strokeColor=#432D57;" parent="DCsRMmaYXh8GikpMAJH6-76" vertex="1">
          <mxGeometry x="60" width="120" height="30" as="geometry">
            <mxRectangle width="120" height="30" as="alternateBounds" />
          </mxGeometry>
        </mxCell>
        <mxCell id="DCsRMmaYXh8GikpMAJH6-71" style="edgeStyle=orthogonalEdgeStyle;shape=connector;rounded=0;orthogonalLoop=1;jettySize=auto;html=1;entryX=1;entryY=0.5;entryDx=0;entryDy=0;strokeColor=#432D57;align=center;verticalAlign=middle;fontFamily=Helvetica;fontSize=11;fontColor=default;labelBackgroundColor=none;endArrow=ERzeroToMany;exitX=0;exitY=0.5;exitDx=0;exitDy=0;startArrow=ERmandOne;startFill=0;endFill=0;fillColor=#76608a;" parent="1" source="DCsRMmaYXh8GikpMAJH6-46" target="DCsRMmaYXh8GikpMAJH6-62" edge="1">
          <mxGeometry relative="1" as="geometry" />
        </mxCell>
        <mxCell id="DCsRMmaYXh8GikpMAJH6-72" style="edgeStyle=orthogonalEdgeStyle;shape=connector;rounded=0;orthogonalLoop=1;jettySize=auto;html=1;entryX=0;entryY=0.5;entryDx=0;entryDy=0;strokeColor=#432D57;align=center;verticalAlign=middle;fontFamily=Helvetica;fontSize=11;fontColor=default;labelBackgroundColor=none;endArrow=ERzeroToMany;exitX=1;exitY=0.5;exitDx=0;exitDy=0;startArrow=ERmandOne;startFill=0;endFill=0;fillColor=#76608a;" parent="1" source="DCsRMmaYXh8GikpMAJH6-36" target="DCsRMmaYXh8GikpMAJH6-59" edge="1">
          <mxGeometry relative="1" as="geometry">
            <mxPoint x="262" y="1612" as="sourcePoint" />
          </mxGeometry>
        </mxCell>
      </root>
    </mxGraphModel>
  </diagram>
</mxfile>
